<svg width="265" height="190" viewBox="0 0 265 190" fill="none" xmlns="http://www.w3.org/2000/svg">
<rect width="265" height="190" rx="12" fill="#121212"/>
<path d="M50.46 90.1C51.6467 90.1 52.6733 90.3267 53.54 90.78C54.4067 91.22 55.14 91.8733 55.74 92.74L54.3 94.12C53.7933 93.3467 53.22 92.7933 52.58 92.46C51.9533 92.1133 51.2067 91.94 50.34 91.94C49.7 91.94 49.1733 92.0267 48.76 92.2C48.3467 92.3733 48.04 92.6067 47.84 92.9C47.6533 93.18 47.56 93.5 47.56 93.86C47.56 94.2733 47.7 94.6333 47.98 94.94C48.2733 95.2467 48.8133 95.4867 49.6 95.66L52.28 96.26C53.56 96.54 54.4667 96.9667 55 97.54C55.5333 98.1133 55.8 98.84 55.8 99.72C55.8 100.533 55.58 101.24 55.14 101.84C54.7 102.44 54.0867 102.9 53.3 103.22C52.5267 103.54 51.6133 103.7 50.56 103.7C49.6267 103.7 48.7867 103.58 48.04 103.34C47.2933 103.1 46.64 102.773 46.08 102.36C45.52 101.947 45.06 101.473 44.7 100.94L46.18 99.46C46.46 99.9267 46.8133 100.347 47.24 100.72C47.6667 101.08 48.16 101.36 48.72 101.56C49.2933 101.76 49.9267 101.86 50.62 101.86C51.2333 101.86 51.76 101.787 52.2 101.64C52.6533 101.493 52.9933 101.28 53.22 101C53.46 100.707 53.58 100.36 53.58 99.96C53.58 99.5733 53.4467 99.2333 53.18 98.94C52.9267 98.6467 52.4467 98.42 51.74 98.26L48.84 97.6C48.04 97.4267 47.38 97.18 46.86 96.86C46.34 96.54 45.9533 96.1533 45.7 95.7C45.4467 95.2333 45.32 94.7133 45.32 94.14C45.32 93.3933 45.52 92.72 45.92 92.12C46.3333 91.5067 46.9267 91.02 47.7 90.66C48.4733 90.2867 49.3933 90.1 50.46 90.1ZM62.492 103.7C61.492 103.7 60.612 103.493 59.852 103.08C59.092 102.667 58.4987 102.073 58.072 101.3C57.6587 100.513 57.452 99.58 57.452 98.5C57.452 97.42 57.6587 96.4933 58.072 95.72C58.4987 94.9333 59.0854 94.3333 59.832 93.92C60.5787 93.5067 61.4254 93.3 62.372 93.3C63.3454 93.3 64.172 93.5 64.852 93.9C65.532 94.3 66.052 94.8467 66.412 95.54C66.772 96.2333 66.952 97.02 66.952 97.9C66.952 98.14 66.9454 98.3667 66.932 98.58C66.9187 98.7933 66.8987 98.98 66.872 99.14H58.832V97.5H65.932L64.872 97.82C64.872 96.9133 64.6454 96.22 64.192 95.74C63.7387 95.2467 63.1187 95 62.332 95C61.7587 95 61.2587 95.1333 60.832 95.4C60.4054 95.6667 60.0787 96.0667 59.852 96.6C59.6254 97.12 59.512 97.76 59.512 98.52C59.512 99.2667 59.632 99.9 59.872 100.42C60.112 100.94 60.452 101.333 60.892 101.6C61.332 101.867 61.852 102 62.452 102C63.1187 102 63.6587 101.873 64.072 101.62C64.4854 101.367 64.812 101.013 65.052 100.56L66.752 101.36C66.512 101.84 66.1854 102.26 65.772 102.62C65.372 102.967 64.892 103.233 64.332 103.42C63.772 103.607 63.1587 103.7 62.492 103.7ZM71.3345 89V100.7C71.3345 101.193 71.4212 101.533 71.5945 101.72C71.7679 101.907 72.0545 102 72.4545 102C72.6945 102 72.8945 101.987 73.0545 101.96C73.2279 101.92 73.4412 101.853 73.6945 101.76L73.4545 103.36C73.2279 103.467 72.9679 103.547 72.6745 103.6C72.3812 103.667 72.0879 103.7 71.7945 103.7C70.9012 103.7 70.2412 103.473 69.8145 103.02C69.4012 102.553 69.1945 101.84 69.1945 100.88V89H71.3345ZM79.485 103.7C78.485 103.7 77.605 103.493 76.845 103.08C76.085 102.667 75.4917 102.073 75.065 101.3C74.6517 100.513 74.445 99.58 74.445 98.5C74.445 97.42 74.6517 96.4933 75.065 95.72C75.4917 94.9333 76.0783 94.3333 76.825 93.92C77.5717 93.5067 78.4183 93.3 79.365 93.3C80.3383 93.3 81.165 93.5 81.845 93.9C82.525 94.3 83.045 94.8467 83.405 95.54C83.765 96.2333 83.945 97.02 83.945 97.9C83.945 98.14 83.9383 98.3667 83.925 98.58C83.9117 98.7933 83.8917 98.98 83.865 99.14H75.825V97.5H82.925L81.865 97.82C81.865 96.9133 81.6383 96.22 81.185 95.74C80.7317 95.2467 80.1117 95 79.325 95C78.7517 95 78.2517 95.1333 77.825 95.4C77.3983 95.6667 77.0717 96.0667 76.845 96.6C76.6183 97.12 76.505 97.76 76.505 98.52C76.505 99.2667 76.625 99.9 76.865 100.42C77.105 100.94 77.445 101.333 77.885 101.6C78.325 101.867 78.845 102 79.445 102C80.1117 102 80.6517 101.873 81.065 101.62C81.4783 101.367 81.805 101.013 82.045 100.56L83.745 101.36C83.505 101.84 83.1783 102.26 82.765 102.62C82.365 102.967 81.885 103.233 81.325 103.42C80.765 103.607 80.1517 103.7 79.485 103.7ZM90.5675 93.3C91.3675 93.3 92.0475 93.42 92.6075 93.66C93.1808 93.8867 93.6608 94.2133 94.0475 94.64C94.4342 95.0667 94.7275 95.5533 94.9275 96.1L92.9075 96.9C92.7342 96.2867 92.4542 95.82 92.0675 95.5C91.6942 95.1667 91.2008 95 90.5875 95C89.9875 95 89.4742 95.14 89.0475 95.42C88.6208 95.6867 88.2942 96.08 88.0675 96.6C87.8542 97.12 87.7475 97.76 87.7475 98.52C87.7475 99.2667 87.8608 99.9 88.0875 100.42C88.3142 100.94 88.6408 101.333 89.0675 101.6C89.4942 101.867 90.0008 102 90.5875 102C91.0408 102 91.4342 101.927 91.7675 101.78C92.1008 101.62 92.3742 101.4 92.5875 101.12C92.8142 100.827 92.9675 100.473 93.0475 100.06L94.9875 100.72C94.8008 101.32 94.5075 101.847 94.1075 102.3C93.7208 102.74 93.2342 103.087 92.6475 103.34C92.0608 103.58 91.3875 103.7 90.6275 103.7C89.6408 103.7 88.7675 103.493 88.0075 103.08C87.2475 102.667 86.6542 102.073 86.2275 101.3C85.8142 100.513 85.6075 99.58 85.6075 98.5C85.6075 97.42 85.8142 96.4933 86.2275 95.72C86.6542 94.9333 87.2408 94.3333 87.9875 93.92C88.7475 93.5067 89.6075 93.3 90.5675 93.3ZM99.998 90.56V100.5C99.998 100.993 100.125 101.353 100.378 101.58C100.645 101.807 100.998 101.92 101.438 101.92C101.798 101.92 102.111 101.867 102.378 101.76C102.645 101.64 102.891 101.48 103.118 101.28L103.598 102.84C103.291 103.107 102.911 103.32 102.458 103.48C102.018 103.627 101.525 103.7 100.978 103.7C100.405 103.7 99.878 103.607 99.398 103.42C98.918 103.233 98.5446 102.933 98.278 102.52C98.0113 102.093 97.8713 101.54 97.858 100.86V91.16L99.998 90.56ZM103.438 93.5V95.18H95.938V93.5H103.438ZM117.038 97.08C117.038 96.4133 116.852 95.9 116.478 95.54C116.118 95.1667 115.618 94.98 114.978 94.98C114.378 94.98 113.865 95.12 113.438 95.4C113.012 95.68 112.698 96.1333 112.498 96.76L110.698 96C110.952 95.1867 111.445 94.5333 112.178 94.04C112.925 93.5467 113.885 93.3 115.058 93.3C115.858 93.3 116.565 93.4333 117.178 93.7C117.792 93.9533 118.272 94.34 118.618 94.86C118.978 95.38 119.158 96.0467 119.158 96.86V101.32C119.158 101.813 119.405 102.06 119.898 102.06C120.138 102.06 120.372 102.027 120.598 101.96L120.478 103.44C120.172 103.587 119.785 103.66 119.318 103.66C118.892 103.66 118.505 103.587 118.158 103.44C117.825 103.28 117.558 103.047 117.358 102.74C117.172 102.42 117.078 102.027 117.078 101.56V101.42L117.518 101.4C117.398 101.92 117.152 102.353 116.778 102.7C116.405 103.033 115.972 103.287 115.478 103.46C114.985 103.62 114.485 103.7 113.978 103.7C113.352 103.7 112.785 103.6 112.278 103.4C111.785 103.2 111.392 102.9 111.098 102.5C110.818 102.087 110.678 101.58 110.678 100.98C110.678 100.233 110.918 99.62 111.398 99.14C111.892 98.66 112.585 98.3333 113.478 98.16L117.358 97.4L117.338 98.9L114.518 99.48C113.958 99.5867 113.538 99.74 113.258 99.94C112.978 100.14 112.838 100.433 112.838 100.82C112.838 101.193 112.978 101.493 113.258 101.72C113.552 101.933 113.938 102.04 114.418 102.04C114.752 102.04 115.072 102 115.378 101.92C115.698 101.84 115.985 101.713 116.238 101.54C116.492 101.353 116.685 101.12 116.818 100.84C116.965 100.547 117.038 100.2 117.038 99.8V97.08ZM124.345 89V100.7C124.345 101.193 124.431 101.533 124.605 101.72C124.778 101.907 125.065 102 125.465 102C125.705 102 125.905 101.987 126.065 101.96C126.238 101.92 126.451 101.853 126.705 101.76L126.465 103.36C126.238 103.467 125.978 103.547 125.685 103.6C125.391 103.667 125.098 103.7 124.805 103.7C123.911 103.7 123.251 103.473 122.825 103.02C122.411 102.553 122.205 101.84 122.205 100.88V89H124.345ZM130.175 89V100.7C130.175 101.193 130.262 101.533 130.435 101.72C130.608 101.907 130.895 102 131.295 102C131.535 102 131.735 101.987 131.895 101.96C132.068 101.92 132.282 101.853 132.535 101.76L132.295 103.36C132.068 103.467 131.808 103.547 131.515 103.6C131.222 103.667 130.928 103.7 130.635 103.7C129.742 103.7 129.082 103.473 128.655 103.02C128.242 102.553 128.035 101.84 128.035 100.88V89H130.175Z" fill="white"/>
<rect x="158" y="82" width="62" height="30" rx="15" fill="#B9B7B7" stroke="white" stroke-width="2"/>
<circle cx="173" cy="97" r="10" fill="#D9D9D9"/>
<mask id="path-5-inside-1_5_431" fill="white">
<path d="M135 78H155V116H135V78Z"/>
</mask>
<path d="M135 78H155V116H135V78Z" fill="#E11F1F" fill-opacity="0.2"/>
<path d="M154 78V116H156V78H154ZM136 116V78H134V116H136Z" fill="#E11F1F" mask="url(#path-5-inside-1_5_431)"/>
<path d="M141.333 88C141.333 89.4728 142.527 90.6667 144 90.6667C145.473 90.6667 146.667 89.4728 146.667 88C146.667 86.5272 145.473 85.3333 144 85.3333C142.527 85.3333 141.333 86.5272 141.333 88ZM144 51L141.113 56H146.887L144 51ZM144.5 88V55.5H143.5V88H144.5Z" fill="white"/>
<path d="M126.012 43.12C125.708 43.12 125.416 43.088 125.136 43.024C124.864 42.96 124.604 42.864 124.356 42.736C124.116 42.608 123.892 42.448 123.684 42.256L124.164 41.44L124.236 41.332L124.308 41.38C124.324 41.444 124.34 41.512 124.356 41.584C124.38 41.648 124.436 41.728 124.524 41.824C124.692 41.992 124.892 42.132 125.124 42.244C125.364 42.348 125.668 42.4 126.036 42.4C126.332 42.4 126.58 42.364 126.78 42.292C126.988 42.22 127.148 42.12 127.26 41.992C127.372 41.856 127.428 41.7 127.428 41.524C127.428 41.404 127.404 41.3 127.356 41.212C127.308 41.116 127.228 41.028 127.116 40.948C127.012 40.868 126.872 40.788 126.696 40.708C126.52 40.628 126.304 40.548 126.048 40.468C125.632 40.348 125.268 40.208 124.956 40.048C124.644 39.888 124.404 39.704 124.236 39.496C124.068 39.28 123.984 39.036 123.984 38.764C123.984 38.484 124.06 38.244 124.212 38.044C124.364 37.836 124.588 37.676 124.884 37.564C125.188 37.444 125.56 37.384 126 37.384C126.256 37.384 126.488 37.404 126.696 37.444C126.904 37.476 127.096 37.528 127.272 37.6C127.448 37.672 127.608 37.764 127.752 37.876C127.904 37.98 128.048 38.104 128.184 38.248L127.692 38.848L127.608 38.944L127.548 38.884C127.54 38.82 127.52 38.76 127.488 38.704C127.464 38.64 127.408 38.564 127.32 38.476C127.136 38.332 126.928 38.224 126.696 38.152C126.464 38.072 126.24 38.032 126.024 38.032C125.704 38.032 125.428 38.088 125.196 38.2C124.964 38.312 124.848 38.484 124.848 38.716C124.848 38.836 124.888 38.956 124.968 39.076C125.056 39.188 125.212 39.304 125.436 39.424C125.66 39.536 125.98 39.652 126.396 39.772C126.852 39.916 127.216 40.064 127.488 40.216C127.768 40.36 127.968 40.528 128.088 40.72C128.216 40.912 128.28 41.14 128.28 41.404C128.28 41.708 128.196 41.992 128.028 42.256C127.868 42.52 127.62 42.732 127.284 42.892C126.948 43.044 126.524 43.12 126.012 43.12ZM129.72 45.004V37.516H130.596V38.596C130.684 38.316 130.808 38.088 130.968 37.912C131.136 37.736 131.328 37.608 131.544 37.528C131.768 37.44 132.008 37.396 132.264 37.396C132.568 37.396 132.856 37.456 133.128 37.576C133.408 37.688 133.652 37.86 133.86 38.092C134.076 38.324 134.244 38.616 134.364 38.968C134.492 39.32 134.556 39.736 134.556 40.216C134.556 40.696 134.488 41.12 134.352 41.488C134.224 41.856 134.048 42.164 133.824 42.412C133.608 42.652 133.36 42.836 133.08 42.964C132.808 43.084 132.528 43.144 132.24 43.144C132.024 43.144 131.812 43.108 131.604 43.036C131.404 42.972 131.22 42.876 131.052 42.748C130.884 42.612 130.736 42.456 130.608 42.28V45.004H129.72ZM132.096 42.376C132.288 42.376 132.476 42.344 132.66 42.28C132.844 42.208 133.012 42.092 133.164 41.932C133.316 41.772 133.436 41.556 133.524 41.284C133.612 41.004 133.656 40.66 133.656 40.252C133.656 39.812 133.6 39.44 133.488 39.136C133.376 38.824 133.212 38.584 132.996 38.416C132.788 38.248 132.532 38.156 132.228 38.14C132.004 38.124 131.792 38.156 131.592 38.236C131.4 38.316 131.228 38.448 131.076 38.632C130.924 38.816 130.804 39.06 130.716 39.364C130.636 39.66 130.596 40.02 130.596 40.444C130.604 40.7 130.632 40.932 130.68 41.14C130.728 41.348 130.796 41.532 130.884 41.692C130.972 41.844 131.076 41.972 131.196 42.076C131.316 42.172 131.452 42.248 131.604 42.304C131.756 42.352 131.92 42.376 132.096 42.376ZM137.532 43.132C136.908 43.132 136.428 42.992 136.092 42.712C135.756 42.424 135.588 42.06 135.588 41.62C135.588 41.324 135.66 41.06 135.804 40.828C135.948 40.588 136.144 40.388 136.392 40.228C136.648 40.06 136.944 39.932 137.28 39.844C137.616 39.756 137.972 39.712 138.348 39.712C138.484 39.712 138.62 39.716 138.756 39.724C138.9 39.724 139.048 39.732 139.2 39.748C139.36 39.756 139.524 39.772 139.692 39.796L139.716 40.456C139.572 40.432 139.424 40.416 139.272 40.408C139.128 40.392 138.984 40.38 138.84 40.372C138.696 40.364 138.556 40.36 138.42 40.36C138.132 40.36 137.868 40.384 137.628 40.432C137.388 40.48 137.18 40.552 137.004 40.648C136.828 40.744 136.692 40.868 136.596 41.02C136.5 41.172 136.452 41.356 136.452 41.572C136.452 41.74 136.48 41.884 136.536 42.004C136.6 42.116 136.684 42.208 136.788 42.28C136.892 42.344 137.012 42.392 137.148 42.424C137.292 42.456 137.448 42.472 137.616 42.472C137.928 42.472 138.204 42.424 138.444 42.328C138.692 42.224 138.9 42.076 139.068 41.884C139.244 41.692 139.376 41.456 139.464 41.176C139.552 40.896 139.596 40.576 139.596 40.216C139.596 39.672 139.532 39.248 139.404 38.944C139.276 38.64 139.084 38.424 138.828 38.296C138.58 38.168 138.26 38.104 137.868 38.104C137.604 38.104 137.344 38.156 137.088 38.26C136.832 38.356 136.6 38.508 136.392 38.716L135.972 38.164C136.228 37.908 136.524 37.716 136.86 37.588C137.196 37.46 137.552 37.396 137.928 37.396C138.288 37.396 138.616 37.44 138.912 37.528C139.208 37.616 139.46 37.764 139.668 37.972C139.884 38.172 140.048 38.444 140.16 38.788C140.28 39.132 140.34 39.564 140.34 40.084V43H139.404V42.16C139.3 42.36 139.172 42.524 139.02 42.652C138.876 42.78 138.72 42.88 138.552 42.952C138.384 43.016 138.212 43.06 138.036 43.084C137.86 43.116 137.692 43.132 137.532 43.132ZM144.42 43.132C144.02 43.132 143.652 43.06 143.316 42.916C142.98 42.772 142.688 42.572 142.44 42.316C142.2 42.06 142.012 41.76 141.876 41.416C141.74 41.064 141.672 40.68 141.672 40.264C141.672 39.856 141.74 39.48 141.876 39.136C142.012 38.784 142.2 38.48 142.44 38.224C142.688 37.968 142.98 37.768 143.316 37.624C143.652 37.48 144.016 37.408 144.408 37.408C144.856 37.408 145.256 37.5 145.608 37.684C145.968 37.86 146.26 38.108 146.484 38.428L145.944 38.956L145.86 39.04L145.8 38.98C145.8 38.916 145.784 38.856 145.752 38.8C145.728 38.744 145.668 38.668 145.572 38.572C145.396 38.412 145.208 38.3 145.008 38.236C144.808 38.172 144.576 38.14 144.312 38.14C144.08 38.14 143.86 38.188 143.652 38.284C143.444 38.38 143.256 38.52 143.088 38.704C142.928 38.88 142.8 39.096 142.704 39.352C142.608 39.608 142.56 39.892 142.56 40.204C142.56 40.516 142.608 40.804 142.704 41.068C142.8 41.324 142.932 41.548 143.1 41.74C143.268 41.932 143.468 42.084 143.7 42.196C143.94 42.3 144.196 42.352 144.468 42.352C144.652 42.352 144.828 42.328 144.996 42.28C145.164 42.224 145.324 42.148 145.476 42.052C145.628 41.948 145.768 41.824 145.896 41.68L146.4 42.268C146.128 42.556 145.824 42.772 145.488 42.916C145.16 43.06 144.804 43.132 144.42 43.132ZM148.2 43V42.304H149.604V38.212H148.272V37.516H150.468V42.304H151.752V43H148.2ZM149.988 36.364C149.82 36.364 149.676 36.304 149.556 36.184C149.436 36.064 149.376 35.92 149.376 35.752C149.376 35.576 149.432 35.428 149.544 35.308C149.664 35.188 149.812 35.128 149.988 35.128C150.156 35.128 150.3 35.192 150.42 35.32C150.548 35.44 150.612 35.584 150.612 35.752C150.612 35.92 150.548 36.064 150.42 36.184C150.3 36.304 150.156 36.364 149.988 36.364ZM153.864 43V37.516H154.704V38.488C154.848 38.264 155.016 38.072 155.208 37.912C155.4 37.744 155.612 37.616 155.844 37.528C156.076 37.432 156.316 37.384 156.564 37.384C156.868 37.384 157.14 37.46 157.38 37.612C157.62 37.764 157.812 38.008 157.956 38.344C158.1 38.68 158.172 39.124 158.172 39.676V43H157.332V39.7C157.332 39.316 157.288 39.012 157.2 38.788C157.112 38.556 156.992 38.392 156.84 38.296C156.688 38.192 156.516 38.14 156.324 38.14C156.14 38.14 155.952 38.18 155.76 38.26C155.576 38.34 155.404 38.456 155.244 38.608C155.084 38.752 154.952 38.928 154.848 39.136C154.752 39.344 154.704 39.58 154.704 39.844V43H153.864ZM161.964 45.064C161.58 45.064 161.232 45.032 160.92 44.968C160.616 44.912 160.352 44.824 160.128 44.704C159.912 44.592 159.744 44.448 159.624 44.272C159.512 44.096 159.456 43.888 159.456 43.648C159.456 43.424 159.504 43.224 159.6 43.048C159.696 42.872 159.82 42.728 159.972 42.616C160.132 42.496 160.304 42.408 160.488 42.352L160.848 42.568C160.704 42.656 160.588 42.744 160.5 42.832C160.412 42.92 160.348 43.02 160.308 43.132C160.268 43.252 160.248 43.392 160.248 43.552C160.248 43.688 160.288 43.808 160.368 43.912C160.448 44.024 160.56 44.116 160.704 44.188C160.856 44.26 161.036 44.316 161.244 44.356C161.46 44.396 161.704 44.416 161.976 44.416C162.344 44.416 162.64 44.376 162.864 44.296C163.096 44.224 163.268 44.12 163.38 43.984C163.492 43.856 163.548 43.708 163.548 43.54C163.548 43.364 163.516 43.22 163.452 43.108C163.388 42.996 163.256 42.912 163.056 42.856C162.856 42.8 162.552 42.772 162.144 42.772C161.864 42.772 161.608 42.76 161.376 42.736C161.144 42.712 160.936 42.672 160.752 42.616C160.568 42.56 160.412 42.492 160.284 42.412C160.164 42.324 160.072 42.22 160.008 42.1C159.944 41.98 159.912 41.84 159.912 41.68C159.912 41.472 159.968 41.272 160.08 41.08C160.2 40.888 160.36 40.704 160.56 40.528L160.968 40.852C160.888 40.94 160.824 41.02 160.776 41.092C160.728 41.156 160.692 41.22 160.668 41.284C160.652 41.34 160.644 41.404 160.644 41.476C160.644 41.604 160.692 41.708 160.788 41.788C160.892 41.868 161.068 41.928 161.316 41.968C161.564 42 161.9 42.016 162.324 42.016C162.748 42.016 163.092 42.052 163.356 42.124C163.62 42.188 163.82 42.284 163.956 42.412C164.1 42.54 164.2 42.688 164.256 42.856C164.312 43.024 164.34 43.208 164.34 43.408C164.34 43.624 164.296 43.828 164.208 44.02C164.128 44.22 163.996 44.396 163.812 44.548C163.628 44.708 163.384 44.832 163.08 44.92C162.776 45.016 162.404 45.064 161.964 45.064ZM161.712 41.14C161.32 41.14 160.98 41.056 160.692 40.888C160.404 40.712 160.18 40.48 160.02 40.192C159.868 39.896 159.792 39.572 159.792 39.22C159.792 38.868 159.868 38.548 160.02 38.26C160.18 37.972 160.404 37.744 160.692 37.576C160.98 37.4 161.32 37.312 161.712 37.312C162.112 37.312 162.452 37.4 162.732 37.576C163.02 37.744 163.24 37.972 163.392 38.26C163.552 38.548 163.632 38.868 163.632 39.22C163.632 39.572 163.552 39.896 163.392 40.192C163.24 40.48 163.02 40.712 162.732 40.888C162.452 41.056 162.112 41.14 161.712 41.14ZM161.712 40.42C161.944 40.42 162.148 40.368 162.324 40.264C162.508 40.152 162.652 40.004 162.756 39.82C162.86 39.636 162.912 39.436 162.912 39.22C162.912 38.996 162.86 38.796 162.756 38.62C162.652 38.436 162.508 38.292 162.324 38.188C162.148 38.076 161.944 38.02 161.712 38.02C161.48 38.02 161.272 38.076 161.088 38.188C160.912 38.292 160.772 38.436 160.668 38.62C160.564 38.796 160.512 38.996 160.512 39.22C160.512 39.436 160.564 39.636 160.668 39.82C160.772 40.004 160.912 40.152 161.088 40.264C161.272 40.368 161.48 40.42 161.712 40.42ZM163.308 38.404L162.972 38.008C163.204 37.776 163.444 37.608 163.692 37.504C163.948 37.392 164.248 37.348 164.592 37.372L164.7 38.08C164.436 38.056 164.188 38.064 163.956 38.104C163.724 38.144 163.508 38.244 163.308 38.404Z" fill="white"/>
<path d="M70.588 156.084C70.236 156.084 69.948 156.024 69.724 155.904C69.5 155.784 69.328 155.6 69.208 155.352C69.088 155.096 69.008 154.776 68.968 154.392C68.936 154.008 68.928 153.552 68.944 153.024L69.088 149.112L69.988 149.004L70.108 148.992L70.12 149.076C70.08 149.132 70.044 149.188 70.012 149.244C69.988 149.3 69.968 149.396 69.952 149.532L69.844 150.888L69.88 151.104L69.796 153.084C69.772 153.692 69.788 154.164 69.844 154.5C69.9 154.828 70 155.056 70.144 155.184C70.288 155.304 70.48 155.364 70.72 155.364C70.984 155.364 71.216 155.312 71.416 155.208C71.624 155.104 71.84 154.972 72.064 154.812L72.328 155.496C72.056 155.696 71.776 155.844 71.488 155.94C71.2 156.036 70.9 156.084 70.588 156.084ZM67.84 150.516H71.788V151.224H67.84V150.516ZM74.2 156V155.304H75.604V151.212H74.272V150.516H76.468V155.304H77.752V156H74.2ZM75.988 149.364C75.82 149.364 75.676 149.304 75.556 149.184C75.436 149.064 75.376 148.92 75.376 148.752C75.376 148.576 75.432 148.428 75.544 148.308C75.664 148.188 75.812 148.128 75.988 148.128C76.156 148.128 76.3 148.192 76.42 148.32C76.548 148.44 76.612 148.584 76.612 148.752C76.612 148.92 76.548 149.064 76.42 149.184C76.3 149.304 76.156 149.364 75.988 149.364ZM82.588 156.084C82.236 156.084 81.948 156.024 81.724 155.904C81.5 155.784 81.328 155.6 81.208 155.352C81.088 155.096 81.008 154.776 80.968 154.392C80.936 154.008 80.928 153.552 80.944 153.024L81.088 149.112L81.988 149.004L82.108 148.992L82.12 149.076C82.08 149.132 82.044 149.188 82.012 149.244C81.988 149.3 81.968 149.396 81.952 149.532L81.844 150.888L81.88 151.104L81.796 153.084C81.772 153.692 81.788 154.164 81.844 154.5C81.9 154.828 82 155.056 82.144 155.184C82.288 155.304 82.48 155.364 82.72 155.364C82.984 155.364 83.216 155.312 83.416 155.208C83.624 155.104 83.84 154.972 84.064 154.812L84.328 155.496C84.056 155.696 83.776 155.844 83.488 155.94C83.2 156.036 82.9 156.084 82.588 156.084ZM79.84 150.516H83.788V151.224H79.84V150.516ZM85.948 156V155.304H87.568V148.716H86.02V148.02H88.444V155.304H90.052V156H85.948ZM94.264 156.12C93.864 156.12 93.5 156.06 93.172 155.94C92.844 155.812 92.56 155.628 92.32 155.388C92.088 155.148 91.908 154.852 91.78 154.5C91.652 154.14 91.588 153.732 91.588 153.276C91.588 152.812 91.652 152.4 91.78 152.04C91.916 151.68 92.096 151.38 92.32 151.14C92.552 150.892 92.82 150.704 93.124 150.576C93.436 150.448 93.764 150.384 94.108 150.384C94.42 150.384 94.712 150.436 94.984 150.54C95.256 150.644 95.492 150.804 95.692 151.02C95.892 151.228 96.048 151.496 96.16 151.824C96.28 152.152 96.34 152.54 96.34 152.988C96.34 153.052 96.336 153.12 96.328 153.192C96.328 153.256 96.324 153.32 96.316 153.384H92.416C92.432 153.736 92.492 154.044 92.596 154.308C92.7 154.564 92.836 154.776 93.004 154.944C93.172 155.104 93.364 155.224 93.58 155.304C93.804 155.384 94.04 155.424 94.288 155.424C94.48 155.424 94.66 155.404 94.828 155.364C94.996 155.316 95.152 155.248 95.296 155.16C95.448 155.064 95.584 154.948 95.704 154.812L96.184 155.28C96.032 155.464 95.856 155.62 95.656 155.748C95.464 155.876 95.252 155.968 95.02 156.024C94.788 156.088 94.536 156.12 94.264 156.12ZM92.452 152.712H95.464C95.464 152.456 95.428 152.228 95.356 152.028C95.292 151.82 95.196 151.644 95.068 151.5C94.948 151.348 94.8 151.236 94.624 151.164C94.456 151.084 94.264 151.044 94.048 151.044C93.856 151.044 93.672 151.076 93.496 151.14C93.328 151.204 93.172 151.308 93.028 151.452C92.884 151.588 92.76 151.76 92.656 151.968C92.56 152.176 92.492 152.424 92.452 152.712Z" fill="white"/>
<path d="M78.8333 111.5C78.8333 112.973 80.0272 114.167 81.5 114.167C82.9728 114.167 84.1667 112.973 84.1667 111.5C84.1667 110.027 82.9728 108.833 81.5 108.833C80.0272 108.833 78.8333 110.027 78.8333 111.5ZM81.5 140L84.3868 135H78.6132L81.5 140ZM81 111.5V135.5H82V111.5H81Z" fill="white"/>
</svg>
