<svg width="475" height="319" viewBox="0 0 475 319" fill="none" xmlns="http://www.w3.org/2000/svg">
<rect width="475" height="318.5" rx="12" fill="#121212"/>
<path d="M128.83 78.4545C128.778 78.0227 128.571 77.6875 128.207 77.4489C127.844 77.2102 127.398 77.0909 126.869 77.0909C126.483 77.0909 126.145 77.1534 125.855 77.2784C125.568 77.4034 125.344 77.5753 125.182 77.794C125.023 78.0128 124.943 78.2614 124.943 78.5398C124.943 78.7727 124.999 78.973 125.109 79.1406C125.223 79.3054 125.368 79.4432 125.544 79.554C125.72 79.6619 125.905 79.7514 126.098 79.8224C126.291 79.8906 126.469 79.946 126.631 79.9886L127.517 80.2273C127.744 80.2869 127.997 80.3693 128.276 80.4744C128.557 80.5795 128.825 80.723 129.081 80.9048C129.339 81.0838 129.553 81.3139 129.72 81.5952C129.888 81.8764 129.972 82.2216 129.972 82.6307C129.972 83.1023 129.848 83.5284 129.601 83.9091C129.357 84.2898 128.999 84.5923 128.527 84.8168C128.058 85.0412 127.489 85.1534 126.818 85.1534C126.193 85.1534 125.652 85.0526 125.195 84.8509C124.74 84.6491 124.382 84.3679 124.121 84.0071C123.862 83.6463 123.716 83.2273 123.682 82.75H124.773C124.801 83.0795 124.912 83.3523 125.105 83.5682C125.301 83.7812 125.548 83.9403 125.847 84.0455C126.148 84.1477 126.472 84.1989 126.818 84.1989C127.222 84.1989 127.584 84.1335 127.905 84.0028C128.226 83.8693 128.48 83.6847 128.668 83.4489C128.855 83.2102 128.949 82.9318 128.949 82.6136C128.949 82.3239 128.868 82.0881 128.706 81.9062C128.544 81.7244 128.331 81.5767 128.067 81.4631C127.803 81.3494 127.517 81.25 127.21 81.1648L126.136 80.858C125.455 80.6619 124.915 80.3821 124.517 80.0185C124.119 79.6548 123.92 79.179 123.92 78.5909C123.92 78.1023 124.053 77.6761 124.317 77.3125C124.584 76.946 124.942 76.6619 125.391 76.4602C125.842 76.2557 126.347 76.1534 126.903 76.1534C127.466 76.1534 127.966 76.2543 128.403 76.456C128.841 76.6548 129.188 76.9276 129.443 77.2741C129.702 77.6207 129.838 78.0142 129.852 78.4545H128.83ZM134.317 85.1364C133.686 85.1364 133.142 84.9972 132.685 84.7188C132.23 84.4375 131.88 84.0455 131.632 83.5426C131.388 83.0369 131.266 82.4489 131.266 81.7784C131.266 81.108 131.388 80.517 131.632 80.0057C131.88 79.4915 132.223 79.0909 132.664 78.804C133.107 78.5142 133.624 78.3693 134.215 78.3693C134.556 78.3693 134.892 78.4261 135.225 78.5398C135.557 78.6534 135.86 78.8381 136.132 79.0938C136.405 79.3466 136.623 79.6818 136.784 80.0994C136.946 80.517 137.027 81.0312 137.027 81.642V82.0682H131.982V81.1989H136.005C136.005 80.8295 135.931 80.5 135.783 80.2102C135.638 79.9205 135.431 79.6918 135.161 79.5241C134.894 79.3565 134.578 79.2727 134.215 79.2727C133.814 79.2727 133.468 79.3722 133.175 79.571C132.885 79.767 132.662 80.0227 132.506 80.3381C132.35 80.6534 132.272 80.9915 132.272 81.3523V81.9318C132.272 82.4261 132.357 82.8452 132.527 83.1889C132.701 83.5298 132.941 83.7898 133.248 83.9688C133.554 84.1449 133.911 84.233 134.317 84.233C134.581 84.233 134.82 84.196 135.033 84.1222C135.249 84.0455 135.435 83.9318 135.591 83.7812C135.748 83.6278 135.868 83.4375 135.953 83.2102L136.925 83.483C136.823 83.8125 136.651 84.1023 136.409 84.3523C136.168 84.5994 135.87 84.7926 135.515 84.9318C135.159 85.0682 134.76 85.1364 134.317 85.1364ZM139.563 76.2727V85H138.557V76.2727H139.563ZM144.149 85.1364C143.518 85.1364 142.974 84.9972 142.517 84.7188C142.062 84.4375 141.712 84.0455 141.464 83.5426C141.22 83.0369 141.098 82.4489 141.098 81.7784C141.098 81.108 141.22 80.517 141.464 80.0057C141.712 79.4915 142.055 79.0909 142.496 78.804C142.939 78.5142 143.456 78.3693 144.047 78.3693C144.388 78.3693 144.724 78.4261 145.057 78.5398C145.389 78.6534 145.692 78.8381 145.964 79.0938C146.237 79.3466 146.455 79.6818 146.616 80.0994C146.778 80.517 146.859 81.0312 146.859 81.642V82.0682H141.814V81.1989H145.837C145.837 80.8295 145.763 80.5 145.615 80.2102C145.47 79.9205 145.263 79.6918 144.993 79.5241C144.726 79.3565 144.411 79.2727 144.047 79.2727C143.646 79.2727 143.3 79.3722 143.007 79.571C142.717 79.767 142.494 80.0227 142.338 80.3381C142.182 80.6534 142.104 80.9915 142.104 81.3523V81.9318C142.104 82.4261 142.189 82.8452 142.359 83.1889C142.533 83.5298 142.773 83.7898 143.08 83.9688C143.386 84.1449 143.743 84.233 144.149 84.233C144.413 84.233 144.652 84.196 144.865 84.1222C145.081 84.0455 145.267 83.9318 145.423 83.7812C145.58 83.6278 145.7 83.4375 145.786 83.2102L146.757 83.483C146.655 83.8125 146.483 84.1023 146.241 84.3523C146 84.5994 145.702 84.7926 145.347 84.9318C144.991 85.0682 144.592 85.1364 144.149 85.1364ZM151.048 85.1364C150.435 85.1364 149.906 84.9915 149.463 84.7017C149.02 84.4119 148.679 84.0128 148.44 83.5043C148.202 82.9957 148.082 82.4148 148.082 81.7614C148.082 81.0966 148.205 80.5099 148.449 80.0014C148.696 79.4901 149.04 79.0909 149.48 78.804C149.923 78.5142 150.44 78.3693 151.031 78.3693C151.491 78.3693 151.906 78.4545 152.276 78.625C152.645 78.7955 152.947 79.0341 153.183 79.3409C153.419 79.6477 153.565 80.0057 153.622 80.4148H152.616C152.54 80.1165 152.369 79.8523 152.105 79.6222C151.844 79.3892 151.491 79.2727 151.048 79.2727C150.656 79.2727 150.313 79.375 150.017 79.5795C149.724 79.7812 149.496 80.0668 149.331 80.4361C149.169 80.8026 149.088 81.233 149.088 81.7273C149.088 82.233 149.168 82.6733 149.327 83.0483C149.489 83.4233 149.716 83.7145 150.009 83.9219C150.304 84.1293 150.651 84.233 151.048 84.233C151.31 84.233 151.547 84.1875 151.76 84.0966C151.973 84.0057 152.153 83.875 152.301 83.7045C152.449 83.5341 152.554 83.3295 152.616 83.0909H153.622C153.565 83.4773 153.425 83.8253 153.2 84.1349C152.979 84.4418 152.685 84.6861 152.318 84.8679C151.955 85.0469 151.531 85.1364 151.048 85.1364ZM157.939 78.4545V79.3068H154.547V78.4545H157.939ZM155.536 76.8864H156.541V83.125C156.541 83.4091 156.582 83.6222 156.665 83.7642C156.75 83.9034 156.858 83.9972 156.989 84.0455C157.122 84.0909 157.263 84.1136 157.411 84.1136C157.521 84.1136 157.612 84.108 157.683 84.0966C157.754 84.0824 157.811 84.071 157.854 84.0625L158.058 84.9659C157.99 84.9915 157.895 85.017 157.773 85.0426C157.651 85.071 157.496 85.0852 157.308 85.0852C157.024 85.0852 156.746 85.0241 156.473 84.902C156.203 84.7798 155.979 84.5938 155.8 84.3438C155.624 84.0938 155.536 83.7784 155.536 83.3977V76.8864ZM165.673 78.4545V79.3068H162.281V78.4545H165.673ZM163.27 76.8864H164.276V83.125C164.276 83.4091 164.317 83.6222 164.399 83.7642C164.484 83.9034 164.592 83.9972 164.723 84.0455C164.857 84.0909 164.997 84.1136 165.145 84.1136C165.256 84.1136 165.347 84.108 165.418 84.0966C165.489 84.0824 165.545 84.071 165.588 84.0625L165.793 84.9659C165.724 84.9915 165.629 85.017 165.507 85.0426C165.385 85.071 165.23 85.0852 165.043 85.0852C164.759 85.0852 164.48 85.0241 164.207 84.902C163.938 84.7798 163.713 84.5938 163.534 84.3438C163.358 84.0938 163.27 83.7784 163.27 83.3977V76.8864ZM167.186 85V78.4545H168.192V85H167.186ZM167.697 77.3636C167.501 77.3636 167.332 77.2969 167.19 77.1634C167.051 77.0298 166.982 76.8693 166.982 76.6818C166.982 76.4943 167.051 76.3338 167.19 76.2003C167.332 76.0668 167.501 76 167.697 76C167.893 76 168.061 76.0668 168.2 76.2003C168.342 76.3338 168.413 76.4943 168.413 76.6818C168.413 76.8693 168.342 77.0298 168.2 77.1634C168.061 77.2969 167.893 77.3636 167.697 77.3636ZM170.034 85V78.4545H171.005V79.4773H171.091C171.227 79.1278 171.447 78.8565 171.751 78.6634C172.055 78.4673 172.42 78.3693 172.846 78.3693C173.278 78.3693 173.637 78.4673 173.924 78.6634C174.214 78.8565 174.44 79.1278 174.602 79.4773H174.67C174.838 79.1392 175.089 78.8707 175.424 78.6719C175.76 78.4702 176.162 78.3693 176.63 78.3693C177.216 78.3693 177.694 78.5526 178.066 78.919C178.439 79.2827 178.625 79.8494 178.625 80.6193V85H177.619V80.6193C177.619 80.1364 177.487 79.7912 177.223 79.5838C176.958 79.3764 176.647 79.2727 176.289 79.2727C175.829 79.2727 175.473 79.4119 175.22 79.6903C174.967 79.9659 174.841 80.3153 174.841 80.7386V85H173.818V80.517C173.818 80.1449 173.697 79.8452 173.456 79.6179C173.214 79.3878 172.903 79.2727 172.522 79.2727C172.261 79.2727 172.017 79.3423 171.789 79.4815C171.565 79.6207 171.383 79.8139 171.244 80.0611C171.108 80.3054 171.039 80.5881 171.039 80.9091V85H170.034ZM183.208 85.1364C182.577 85.1364 182.033 84.9972 181.576 84.7188C181.121 84.4375 180.77 84.0455 180.523 83.5426C180.279 83.0369 180.157 82.4489 180.157 81.7784C180.157 81.108 180.279 80.517 180.523 80.0057C180.77 79.4915 181.114 79.0909 181.554 78.804C181.998 78.5142 182.515 78.3693 183.105 78.3693C183.446 78.3693 183.783 78.4261 184.115 78.5398C184.448 78.6534 184.75 78.8381 185.023 79.0938C185.296 79.3466 185.513 79.6818 185.675 80.0994C185.837 80.517 185.918 81.0312 185.918 81.642V82.0682H180.873V81.1989H184.895C184.895 80.8295 184.821 80.5 184.674 80.2102C184.529 79.9205 184.321 79.6918 184.051 79.5241C183.784 79.3565 183.469 79.2727 183.105 79.2727C182.705 79.2727 182.358 79.3722 182.066 79.571C181.776 79.767 181.553 80.0227 181.397 80.3381C181.24 80.6534 181.162 80.9915 181.162 81.3523V81.9318C181.162 82.4261 181.248 82.8452 181.418 83.1889C181.591 83.5298 181.831 83.7898 182.138 83.9688C182.445 84.1449 182.801 84.233 183.208 84.233C183.472 84.233 183.711 84.196 183.924 84.1222C184.14 84.0455 184.326 83.9318 184.482 83.7812C184.638 83.6278 184.759 83.4375 184.844 83.2102L185.816 83.483C185.713 83.8125 185.542 84.1023 185.3 84.3523C185.059 84.5994 184.76 84.7926 184.405 84.9318C184.05 85.0682 183.651 85.1364 183.208 85.1364Z" fill="white"/>
<path d="M195.868 81.1818L195.936 79.3068L194.351 80.3125L193.942 79.5966L195.613 78.7273L193.942 77.858L194.351 77.142L195.936 78.1477L195.868 76.2727H196.686L196.618 78.1477L198.203 77.142L198.613 77.858L196.942 78.7273L198.613 79.5966L198.203 80.3125L196.618 79.3068L196.686 81.1818H195.868Z" fill="#F31414"/>
<mask id="mask0_5_467" style="mask-type:alpha" maskUnits="userSpaceOnUse" x="147" y="105" width="24" height="25">
<rect x="147" y="105.5" width="24" height="24" fill="#D9D9D9"/>
</mask>
<g mask="url(#mask0_5_467)">
<path d="M157.6 121.008L163.996 114.612L163.288 113.904L157.6 119.592L154.75 116.742L154.042 117.45L157.6 121.008ZM152.615 125.5C152.155 125.5 151.771 125.346 151.463 125.038C151.154 124.729 151 124.345 151 123.885V111.115C151 110.655 151.154 110.271 151.463 109.963C151.771 109.654 152.155 109.5 152.615 109.5H165.385C165.845 109.5 166.229 109.654 166.538 109.963C166.846 110.271 167 110.655 167 111.115V123.885C167 124.345 166.846 124.729 166.538 125.038C166.229 125.346 165.845 125.5 165.385 125.5H152.615Z" fill="white"/>
</g>
<path d="M192.952 112.28C193.976 112.28 194.861 112.499 195.608 112.936C196.355 113.373 196.931 113.997 197.336 114.808C197.741 115.619 197.944 116.589 197.944 117.72C197.944 118.851 197.741 119.821 197.336 120.632C196.931 121.443 196.355 122.067 195.608 122.504C194.861 122.941 193.976 123.16 192.952 123.16C191.939 123.16 191.059 122.941 190.312 122.504C189.565 122.067 188.989 121.443 188.584 120.632C188.179 119.821 187.976 118.851 187.976 117.72C187.976 116.589 188.179 115.619 188.584 114.808C188.989 113.997 189.565 113.373 190.312 112.936C191.059 112.499 191.939 112.28 192.952 112.28ZM192.952 113.768C192.291 113.768 191.72 113.923 191.24 114.232C190.771 114.541 190.408 114.989 190.152 115.576C189.896 116.163 189.768 116.877 189.768 117.72C189.768 118.552 189.896 119.267 190.152 119.864C190.408 120.451 190.771 120.899 191.24 121.208C191.72 121.517 192.291 121.672 192.952 121.672C193.624 121.672 194.195 121.517 194.664 121.208C195.144 120.899 195.512 120.451 195.768 119.864C196.024 119.267 196.152 118.552 196.152 117.72C196.152 116.877 196.024 116.163 195.768 115.576C195.512 114.989 195.144 114.541 194.664 114.232C194.195 113.923 193.624 113.768 192.952 113.768ZM199.867 126.36V115H201.387L201.515 117.24L201.291 116.968C201.419 116.552 201.617 116.184 201.883 115.864C202.15 115.544 202.481 115.293 202.875 115.112C203.281 114.931 203.723 114.84 204.203 114.84C204.854 114.84 205.446 115.005 205.979 115.336C206.513 115.667 206.934 116.141 207.243 116.76C207.553 117.368 207.707 118.109 207.707 118.984C207.707 119.859 207.547 120.611 207.227 121.24C206.918 121.859 206.491 122.333 205.947 122.664C205.414 122.995 204.817 123.16 204.155 123.16C203.473 123.16 202.891 122.984 202.411 122.632C201.931 122.269 201.59 121.811 201.387 121.256L201.579 120.984V126.36H199.867ZM203.787 121.768C204.481 121.768 205.019 121.523 205.403 121.032C205.798 120.541 205.995 119.864 205.995 119C205.995 118.136 205.803 117.459 205.419 116.968C205.035 116.467 204.502 116.216 203.819 116.216C203.371 116.216 202.977 116.333 202.635 116.568C202.305 116.792 202.043 117.112 201.851 117.528C201.67 117.933 201.579 118.424 201.579 119C201.579 119.565 201.67 120.056 201.851 120.472C202.033 120.888 202.289 121.208 202.619 121.432C202.95 121.656 203.339 121.768 203.787 121.768ZM211.805 112.648V120.6C211.805 120.995 211.907 121.283 212.109 121.464C212.323 121.645 212.605 121.736 212.957 121.736C213.245 121.736 213.496 121.693 213.709 121.608C213.923 121.512 214.12 121.384 214.301 121.224L214.685 122.472C214.44 122.685 214.136 122.856 213.773 122.984C213.421 123.101 213.027 123.16 212.589 123.16C212.131 123.16 211.709 123.085 211.325 122.936C210.941 122.787 210.643 122.547 210.429 122.216C210.216 121.875 210.104 121.432 210.093 120.888V113.128L211.805 112.648ZM214.557 115V116.344H208.557V115H214.557ZM216.795 113.656C216.421 113.656 216.133 113.565 215.931 113.384C215.739 113.192 215.643 112.925 215.643 112.584C215.643 112.243 215.739 111.981 215.931 111.8C216.133 111.619 216.421 111.528 216.795 111.528C217.157 111.528 217.435 111.619 217.627 111.8C217.829 111.981 217.931 112.243 217.931 112.584C217.931 112.925 217.829 113.192 217.627 113.384C217.435 113.565 217.157 113.656 216.795 113.656ZM217.643 115V123H215.931V115H217.643ZM223.473 114.84C224.252 114.84 224.94 115.005 225.537 115.336C226.134 115.667 226.598 116.147 226.929 116.776C227.27 117.395 227.441 118.136 227.441 119C227.441 119.864 227.27 120.611 226.929 121.24C226.598 121.859 226.134 122.333 225.537 122.664C224.94 122.995 224.252 123.16 223.473 123.16C222.694 123.16 222.006 122.995 221.409 122.664C220.812 122.333 220.342 121.859 220.001 121.24C219.66 120.611 219.489 119.864 219.489 119C219.489 118.136 219.66 117.395 220.001 116.776C220.342 116.147 220.812 115.667 221.409 115.336C222.006 115.005 222.694 114.84 223.473 114.84ZM223.473 116.184C222.993 116.184 222.582 116.296 222.241 116.52C221.91 116.733 221.654 117.048 221.473 117.464C221.292 117.88 221.201 118.392 221.201 119C221.201 119.597 221.292 120.109 221.473 120.536C221.654 120.952 221.91 121.272 222.241 121.496C222.582 121.709 222.993 121.816 223.473 121.816C223.953 121.816 224.358 121.709 224.689 121.496C225.02 121.272 225.276 120.952 225.457 120.536C225.638 120.109 225.729 119.597 225.729 119C225.729 118.392 225.638 117.88 225.457 117.464C225.276 117.048 225.02 116.733 224.689 116.52C224.358 116.296 223.953 116.184 223.473 116.184ZM229.275 123V115H230.795L230.907 117.08L230.683 116.856C230.832 116.397 231.046 116.019 231.323 115.72C231.611 115.411 231.947 115.187 232.331 115.048C232.726 114.909 233.142 114.84 233.579 114.84C234.144 114.84 234.651 114.952 235.099 115.176C235.558 115.389 235.92 115.715 236.187 116.152C236.454 116.589 236.587 117.144 236.587 117.816V123H234.875V118.344C234.875 117.555 234.71 117.011 234.379 116.712C234.059 116.403 233.654 116.248 233.163 116.248C232.811 116.248 232.47 116.333 232.139 116.504C231.808 116.664 231.531 116.925 231.307 117.288C231.094 117.651 230.987 118.136 230.987 118.744V123H229.275ZM245.414 123V115.752C245.414 115.539 245.414 115.32 245.414 115.096C245.425 114.861 245.436 114.616 245.446 114.36C245.084 114.712 244.668 115.016 244.198 115.272C243.74 115.517 243.265 115.693 242.774 115.8L242.454 114.312C242.678 114.28 242.94 114.205 243.238 114.088C243.537 113.971 243.846 113.821 244.166 113.64C244.486 113.459 244.78 113.267 245.046 113.064C245.313 112.851 245.521 112.643 245.67 112.44H247.11V123H245.414Z" fill="white"/>
<mask id="mask1_5_467" style="mask-type:alpha" maskUnits="userSpaceOnUse" x="147" y="145" width="24" height="25">
<rect x="147" y="145.5" width="24" height="24" fill="#D9D9D9"/>
</mask>
<g mask="url(#mask1_5_467)">
<path d="M152.615 165.5C152.155 165.5 151.771 165.346 151.463 165.038C151.154 164.729 151 164.345 151 163.885V151.115C151 150.655 151.154 150.271 151.463 149.963C151.771 149.654 152.155 149.5 152.615 149.5H165.385C165.845 149.5 166.229 149.654 166.538 149.963C166.846 150.271 167 150.655 167 151.115V163.885C167 164.345 166.846 164.729 166.538 165.038C166.229 165.346 165.845 165.5 165.385 165.5H152.615ZM152.615 164.5H165.385C165.538 164.5 165.679 164.436 165.808 164.308C165.936 164.179 166 164.038 166 163.885V151.115C166 150.962 165.936 150.821 165.808 150.692C165.679 150.564 165.538 150.5 165.385 150.5H152.615C152.462 150.5 152.321 150.564 152.192 150.692C152.064 150.821 152 150.962 152 151.115V163.885C152 164.038 152.064 164.179 152.192 164.308C152.321 164.436 152.462 164.5 152.615 164.5Z" fill="white"/>
</g>
<path d="M192.952 152.28C193.976 152.28 194.861 152.499 195.608 152.936C196.355 153.373 196.931 153.997 197.336 154.808C197.741 155.619 197.944 156.589 197.944 157.72C197.944 158.851 197.741 159.821 197.336 160.632C196.931 161.443 196.355 162.067 195.608 162.504C194.861 162.941 193.976 163.16 192.952 163.16C191.939 163.16 191.059 162.941 190.312 162.504C189.565 162.067 188.989 161.443 188.584 160.632C188.179 159.821 187.976 158.851 187.976 157.72C187.976 156.589 188.179 155.619 188.584 154.808C188.989 153.997 189.565 153.373 190.312 152.936C191.059 152.499 191.939 152.28 192.952 152.28ZM192.952 153.768C192.291 153.768 191.72 153.923 191.24 154.232C190.771 154.541 190.408 154.989 190.152 155.576C189.896 156.163 189.768 156.877 189.768 157.72C189.768 158.552 189.896 159.267 190.152 159.864C190.408 160.451 190.771 160.899 191.24 161.208C191.72 161.517 192.291 161.672 192.952 161.672C193.624 161.672 194.195 161.517 194.664 161.208C195.144 160.899 195.512 160.451 195.768 159.864C196.024 159.267 196.152 158.552 196.152 157.72C196.152 156.877 196.024 156.163 195.768 155.576C195.512 154.989 195.144 154.541 194.664 154.232C194.195 153.923 193.624 153.768 192.952 153.768ZM199.867 166.36V155H201.387L201.515 157.24L201.291 156.968C201.419 156.552 201.617 156.184 201.883 155.864C202.15 155.544 202.481 155.293 202.875 155.112C203.281 154.931 203.723 154.84 204.203 154.84C204.854 154.84 205.446 155.005 205.979 155.336C206.513 155.667 206.934 156.141 207.243 156.76C207.553 157.368 207.707 158.109 207.707 158.984C207.707 159.859 207.547 160.611 207.227 161.24C206.918 161.859 206.491 162.333 205.947 162.664C205.414 162.995 204.817 163.16 204.155 163.16C203.473 163.16 202.891 162.984 202.411 162.632C201.931 162.269 201.59 161.811 201.387 161.256L201.579 160.984V166.36H199.867ZM203.787 161.768C204.481 161.768 205.019 161.523 205.403 161.032C205.798 160.541 205.995 159.864 205.995 159C205.995 158.136 205.803 157.459 205.419 156.968C205.035 156.467 204.502 156.216 203.819 156.216C203.371 156.216 202.977 156.333 202.635 156.568C202.305 156.792 202.043 157.112 201.851 157.528C201.67 157.933 201.579 158.424 201.579 159C201.579 159.565 201.67 160.056 201.851 160.472C202.033 160.888 202.289 161.208 202.619 161.432C202.95 161.656 203.339 161.768 203.787 161.768ZM211.805 152.648V160.6C211.805 160.995 211.907 161.283 212.109 161.464C212.323 161.645 212.605 161.736 212.957 161.736C213.245 161.736 213.496 161.693 213.709 161.608C213.923 161.512 214.12 161.384 214.301 161.224L214.685 162.472C214.44 162.685 214.136 162.856 213.773 162.984C213.421 163.101 213.027 163.16 212.589 163.16C212.131 163.16 211.709 163.085 211.325 162.936C210.941 162.787 210.643 162.547 210.429 162.216C210.216 161.875 210.104 161.432 210.093 160.888V153.128L211.805 152.648ZM214.557 155V156.344H208.557V155H214.557ZM216.795 153.656C216.421 153.656 216.133 153.565 215.931 153.384C215.739 153.192 215.643 152.925 215.643 152.584C215.643 152.243 215.739 151.981 215.931 151.8C216.133 151.619 216.421 151.528 216.795 151.528C217.157 151.528 217.435 151.619 217.627 151.8C217.829 151.981 217.931 152.243 217.931 152.584C217.931 152.925 217.829 153.192 217.627 153.384C217.435 153.565 217.157 153.656 216.795 153.656ZM217.643 155V163H215.931V155H217.643ZM223.473 154.84C224.252 154.84 224.94 155.005 225.537 155.336C226.134 155.667 226.598 156.147 226.929 156.776C227.27 157.395 227.441 158.136 227.441 159C227.441 159.864 227.27 160.611 226.929 161.24C226.598 161.859 226.134 162.333 225.537 162.664C224.94 162.995 224.252 163.16 223.473 163.16C222.694 163.16 222.006 162.995 221.409 162.664C220.812 162.333 220.342 161.859 220.001 161.24C219.66 160.611 219.489 159.864 219.489 159C219.489 158.136 219.66 157.395 220.001 156.776C220.342 156.147 220.812 155.667 221.409 155.336C222.006 155.005 222.694 154.84 223.473 154.84ZM223.473 156.184C222.993 156.184 222.582 156.296 222.241 156.52C221.91 156.733 221.654 157.048 221.473 157.464C221.292 157.88 221.201 158.392 221.201 159C221.201 159.597 221.292 160.109 221.473 160.536C221.654 160.952 221.91 161.272 222.241 161.496C222.582 161.709 222.993 161.816 223.473 161.816C223.953 161.816 224.358 161.709 224.689 161.496C225.02 161.272 225.276 160.952 225.457 160.536C225.638 160.109 225.729 159.597 225.729 159C225.729 158.392 225.638 157.88 225.457 157.464C225.276 157.048 225.02 156.733 224.689 156.52C224.358 156.296 223.953 156.184 223.473 156.184ZM229.275 163V155H230.795L230.907 157.08L230.683 156.856C230.832 156.397 231.046 156.019 231.323 155.72C231.611 155.411 231.947 155.187 232.331 155.048C232.726 154.909 233.142 154.84 233.579 154.84C234.144 154.84 234.651 154.952 235.099 155.176C235.558 155.389 235.92 155.715 236.187 156.152C236.454 156.589 236.587 157.144 236.587 157.816V163H234.875V158.344C234.875 157.555 234.71 157.011 234.379 156.712C234.059 156.403 233.654 156.248 233.163 156.248C232.811 156.248 232.47 156.333 232.139 156.504C231.808 156.664 231.531 156.925 231.307 157.288C231.094 157.651 230.987 158.136 230.987 158.744V163H229.275ZM243.536 163V161.752C244.55 161.027 245.398 160.387 246.08 159.832C246.774 159.277 247.328 158.765 247.744 158.296C248.16 157.827 248.459 157.384 248.64 156.968C248.832 156.541 248.928 156.109 248.928 155.672C248.928 155.107 248.752 154.648 248.4 154.296C248.048 153.944 247.558 153.768 246.928 153.768C246.267 153.768 245.739 153.992 245.344 154.44C244.96 154.877 244.742 155.48 244.688 156.248L243.2 155.56C243.275 154.888 243.472 154.307 243.792 153.816C244.112 153.325 244.544 152.947 245.088 152.68C245.643 152.413 246.283 152.28 247.008 152.28C247.606 152.28 248.128 152.365 248.576 152.536C249.035 152.707 249.419 152.947 249.728 153.256C250.038 153.555 250.272 153.907 250.432 154.312C250.603 154.717 250.688 155.149 250.688 155.608C250.688 156.28 250.523 156.931 250.192 157.56C249.862 158.179 249.339 158.813 248.624 159.464C247.91 160.115 246.971 160.813 245.808 161.56V161.592C245.936 161.571 246.112 161.56 246.336 161.56C246.56 161.549 246.784 161.544 247.008 161.544C247.232 161.533 247.414 161.528 247.552 161.528H250.88V163H243.536Z" fill="white"/>
<mask id="mask2_5_467" style="mask-type:alpha" maskUnits="userSpaceOnUse" x="147" y="185" width="24" height="25">
<rect x="147" y="185.5" width="24" height="24" fill="#D9D9D9"/>
</mask>
<g mask="url(#mask2_5_467)">
<path d="M152.615 205.5C152.155 205.5 151.771 205.346 151.463 205.038C151.154 204.729 151 204.345 151 203.885V191.115C151 190.655 151.154 190.271 151.463 189.963C151.771 189.654 152.155 189.5 152.615 189.5H165.385C165.845 189.5 166.229 189.654 166.538 189.963C166.846 190.271 167 190.655 167 191.115V203.885C167 204.345 166.846 204.729 166.538 205.038C166.229 205.346 165.845 205.5 165.385 205.5H152.615ZM152.615 204.5H165.385C165.538 204.5 165.679 204.436 165.808 204.308C165.936 204.179 166 204.038 166 203.885V191.115C166 190.962 165.936 190.821 165.808 190.692C165.679 190.564 165.538 190.5 165.385 190.5H152.615C152.462 190.5 152.321 190.564 152.192 190.692C152.064 190.821 152 190.962 152 191.115V203.885C152 204.038 152.064 204.179 152.192 204.308C152.321 204.436 152.462 204.5 152.615 204.5Z" fill="white"/>
</g>
<path d="M192.952 192.28C193.976 192.28 194.861 192.499 195.608 192.936C196.355 193.373 196.931 193.997 197.336 194.808C197.741 195.619 197.944 196.589 197.944 197.72C197.944 198.851 197.741 199.821 197.336 200.632C196.931 201.443 196.355 202.067 195.608 202.504C194.861 202.941 193.976 203.16 192.952 203.16C191.939 203.16 191.059 202.941 190.312 202.504C189.565 202.067 188.989 201.443 188.584 200.632C188.179 199.821 187.976 198.851 187.976 197.72C187.976 196.589 188.179 195.619 188.584 194.808C188.989 193.997 189.565 193.373 190.312 192.936C191.059 192.499 191.939 192.28 192.952 192.28ZM192.952 193.768C192.291 193.768 191.72 193.923 191.24 194.232C190.771 194.541 190.408 194.989 190.152 195.576C189.896 196.163 189.768 196.877 189.768 197.72C189.768 198.552 189.896 199.267 190.152 199.864C190.408 200.451 190.771 200.899 191.24 201.208C191.72 201.517 192.291 201.672 192.952 201.672C193.624 201.672 194.195 201.517 194.664 201.208C195.144 200.899 195.512 200.451 195.768 199.864C196.024 199.267 196.152 198.552 196.152 197.72C196.152 196.877 196.024 196.163 195.768 195.576C195.512 194.989 195.144 194.541 194.664 194.232C194.195 193.923 193.624 193.768 192.952 193.768ZM199.867 206.36V195H201.387L201.515 197.24L201.291 196.968C201.419 196.552 201.617 196.184 201.883 195.864C202.15 195.544 202.481 195.293 202.875 195.112C203.281 194.931 203.723 194.84 204.203 194.84C204.854 194.84 205.446 195.005 205.979 195.336C206.513 195.667 206.934 196.141 207.243 196.76C207.553 197.368 207.707 198.109 207.707 198.984C207.707 199.859 207.547 200.611 207.227 201.24C206.918 201.859 206.491 202.333 205.947 202.664C205.414 202.995 204.817 203.16 204.155 203.16C203.473 203.16 202.891 202.984 202.411 202.632C201.931 202.269 201.59 201.811 201.387 201.256L201.579 200.984V206.36H199.867ZM203.787 201.768C204.481 201.768 205.019 201.523 205.403 201.032C205.798 200.541 205.995 199.864 205.995 199C205.995 198.136 205.803 197.459 205.419 196.968C205.035 196.467 204.502 196.216 203.819 196.216C203.371 196.216 202.977 196.333 202.635 196.568C202.305 196.792 202.043 197.112 201.851 197.528C201.67 197.933 201.579 198.424 201.579 199C201.579 199.565 201.67 200.056 201.851 200.472C202.033 200.888 202.289 201.208 202.619 201.432C202.95 201.656 203.339 201.768 203.787 201.768ZM211.805 192.648V200.6C211.805 200.995 211.907 201.283 212.109 201.464C212.323 201.645 212.605 201.736 212.957 201.736C213.245 201.736 213.496 201.693 213.709 201.608C213.923 201.512 214.12 201.384 214.301 201.224L214.685 202.472C214.44 202.685 214.136 202.856 213.773 202.984C213.421 203.101 213.027 203.16 212.589 203.16C212.131 203.16 211.709 203.085 211.325 202.936C210.941 202.787 210.643 202.547 210.429 202.216C210.216 201.875 210.104 201.432 210.093 200.888V193.128L211.805 192.648ZM214.557 195V196.344H208.557V195H214.557ZM216.795 193.656C216.421 193.656 216.133 193.565 215.931 193.384C215.739 193.192 215.643 192.925 215.643 192.584C215.643 192.243 215.739 191.981 215.931 191.8C216.133 191.619 216.421 191.528 216.795 191.528C217.157 191.528 217.435 191.619 217.627 191.8C217.829 191.981 217.931 192.243 217.931 192.584C217.931 192.925 217.829 193.192 217.627 193.384C217.435 193.565 217.157 193.656 216.795 193.656ZM217.643 195V203H215.931V195H217.643ZM223.473 194.84C224.252 194.84 224.94 195.005 225.537 195.336C226.134 195.667 226.598 196.147 226.929 196.776C227.27 197.395 227.441 198.136 227.441 199C227.441 199.864 227.27 200.611 226.929 201.24C226.598 201.859 226.134 202.333 225.537 202.664C224.94 202.995 224.252 203.16 223.473 203.16C222.694 203.16 222.006 202.995 221.409 202.664C220.812 202.333 220.342 201.859 220.001 201.24C219.66 200.611 219.489 199.864 219.489 199C219.489 198.136 219.66 197.395 220.001 196.776C220.342 196.147 220.812 195.667 221.409 195.336C222.006 195.005 222.694 194.84 223.473 194.84ZM223.473 196.184C222.993 196.184 222.582 196.296 222.241 196.52C221.91 196.733 221.654 197.048 221.473 197.464C221.292 197.88 221.201 198.392 221.201 199C221.201 199.597 221.292 200.109 221.473 200.536C221.654 200.952 221.91 201.272 222.241 201.496C222.582 201.709 222.993 201.816 223.473 201.816C223.953 201.816 224.358 201.709 224.689 201.496C225.02 201.272 225.276 200.952 225.457 200.536C225.638 200.109 225.729 199.597 225.729 199C225.729 198.392 225.638 197.88 225.457 197.464C225.276 197.048 225.02 196.733 224.689 196.52C224.358 196.296 223.953 196.184 223.473 196.184ZM229.275 203V195H230.795L230.907 197.08L230.683 196.856C230.832 196.397 231.046 196.019 231.323 195.72C231.611 195.411 231.947 195.187 232.331 195.048C232.726 194.909 233.142 194.84 233.579 194.84C234.144 194.84 234.651 194.952 235.099 195.176C235.558 195.389 235.92 195.715 236.187 196.152C236.454 196.589 236.587 197.144 236.587 197.816V203H234.875V198.344C234.875 197.555 234.71 197.011 234.379 196.712C234.059 196.403 233.654 196.248 233.163 196.248C232.811 196.248 232.47 196.333 232.139 196.504C231.808 196.664 231.531 196.925 231.307 197.288C231.094 197.651 230.987 198.136 230.987 198.744V203H229.275ZM247.104 203.16C246.112 203.16 245.248 202.941 244.512 202.504C243.787 202.056 243.291 201.432 243.024 200.632L244.688 199.848C244.784 200.232 244.934 200.563 245.136 200.84C245.339 201.117 245.606 201.331 245.936 201.48C246.267 201.619 246.678 201.688 247.168 201.688C247.584 201.688 247.936 201.613 248.224 201.464C248.512 201.315 248.731 201.107 248.88 200.84C249.04 200.573 249.12 200.269 249.12 199.928C249.12 199.576 249.051 199.283 248.912 199.048C248.784 198.813 248.576 198.643 248.288 198.536C248.011 198.429 247.654 198.376 247.216 198.376C247.088 198.376 246.955 198.381 246.816 198.392C246.688 198.392 246.55 198.403 246.4 198.424V196.984C246.496 196.995 246.587 197.005 246.672 197.016C246.768 197.016 246.859 197.016 246.944 197.016C247.638 197.016 248.134 196.877 248.432 196.6C248.731 196.323 248.88 195.891 248.88 195.304C248.88 194.803 248.726 194.419 248.416 194.152C248.118 193.885 247.686 193.752 247.12 193.752C246.534 193.752 246.075 193.891 245.744 194.168C245.424 194.435 245.179 194.824 245.008 195.336L243.44 194.68C243.59 194.189 243.84 193.763 244.192 193.4C244.544 193.037 244.976 192.76 245.488 192.568C246.011 192.365 246.582 192.264 247.2 192.264C247.958 192.264 248.587 192.387 249.088 192.632C249.6 192.877 249.979 193.213 250.224 193.64C250.48 194.067 250.608 194.541 250.608 195.064C250.608 195.469 250.55 195.827 250.432 196.136C250.315 196.435 250.155 196.696 249.952 196.92C249.76 197.133 249.547 197.299 249.312 197.416C249.088 197.533 248.859 197.613 248.624 197.656V197.688C248.934 197.699 249.216 197.763 249.472 197.88C249.739 197.987 249.974 198.141 250.176 198.344C250.39 198.536 250.555 198.771 250.672 199.048C250.79 199.325 250.848 199.629 250.848 199.96C250.848 200.6 250.688 201.16 250.368 201.64C250.048 202.12 249.606 202.493 249.04 202.76C248.486 203.027 247.84 203.16 247.104 203.16Z" fill="white"/>
<rect x="123.5" y="92.5" width="319" height="130" rx="11.5" stroke="white" stroke-opacity="0.3"/>
<path d="M139.58 231.21V230.273H146.125V231.21H143.381V239H142.324V231.21H139.58ZM148.625 235.062V239H147.62V230.273H148.625V233.477H148.711C148.864 233.139 149.094 232.871 149.401 232.672C149.711 232.47 150.123 232.369 150.637 232.369C151.083 232.369 151.473 232.459 151.809 232.638C152.144 232.814 152.404 233.085 152.588 233.452C152.776 233.815 152.87 234.278 152.87 234.841V239H151.864V234.909C151.864 234.389 151.729 233.987 151.459 233.703C151.192 233.416 150.821 233.273 150.347 233.273C150.017 233.273 149.722 233.342 149.461 233.482C149.202 233.621 148.998 233.824 148.847 234.091C148.699 234.358 148.625 234.682 148.625 235.062ZM154.71 239V232.455H155.715V239H154.71ZM155.221 231.364C155.025 231.364 154.856 231.297 154.714 231.163C154.575 231.03 154.505 230.869 154.505 230.682C154.505 230.494 154.575 230.334 154.714 230.2C154.856 230.067 155.025 230 155.221 230C155.417 230 155.585 230.067 155.724 230.2C155.866 230.334 155.937 230.494 155.937 230.682C155.937 230.869 155.866 231.03 155.724 231.163C155.585 231.297 155.417 231.364 155.221 231.364ZM162.194 233.92L161.29 234.176C161.233 234.026 161.15 233.879 161.039 233.737C160.931 233.592 160.783 233.473 160.596 233.379C160.408 233.286 160.168 233.239 159.875 233.239C159.475 233.239 159.141 233.331 158.874 233.516C158.61 233.697 158.478 233.929 158.478 234.21C158.478 234.46 158.569 234.658 158.75 234.803C158.932 234.947 159.216 235.068 159.603 235.165L160.574 235.403C161.159 235.545 161.596 235.763 161.882 236.055C162.169 236.345 162.313 236.719 162.313 237.176C162.313 237.551 162.205 237.886 161.989 238.182C161.776 238.477 161.478 238.71 161.094 238.881C160.711 239.051 160.265 239.136 159.756 239.136C159.088 239.136 158.536 238.991 158.098 238.702C157.661 238.412 157.384 237.989 157.267 237.432L158.222 237.193C158.313 237.545 158.485 237.81 158.738 237.986C158.993 238.162 159.327 238.25 159.739 238.25C160.208 238.25 160.58 238.151 160.855 237.952C161.134 237.75 161.273 237.509 161.273 237.227C161.273 237 161.194 236.81 161.034 236.656C160.875 236.5 160.631 236.384 160.301 236.307L159.211 236.051C158.611 235.909 158.171 235.689 157.89 235.391C157.611 235.089 157.472 234.713 157.472 234.261C157.472 233.892 157.576 233.565 157.783 233.281C157.993 232.997 158.279 232.774 158.64 232.612C159.003 232.45 159.415 232.369 159.875 232.369C160.523 232.369 161.032 232.511 161.401 232.795C161.773 233.08 162.037 233.455 162.194 233.92ZM170.116 232.455V233.307H166.588V232.455H170.116ZM167.645 239V231.551C167.645 231.176 167.733 230.864 167.909 230.614C168.085 230.364 168.314 230.176 168.595 230.051C168.876 229.926 169.173 229.864 169.486 229.864C169.733 229.864 169.935 229.884 170.091 229.923C170.247 229.963 170.364 230 170.44 230.034L170.151 230.903C170.099 230.886 170.028 230.865 169.938 230.839C169.849 230.814 169.733 230.801 169.588 230.801C169.256 230.801 169.016 230.885 168.868 231.053C168.723 231.22 168.651 231.466 168.651 231.79V239H167.645ZM171.526 239V232.455H172.532V239H171.526ZM172.037 231.364C171.841 231.364 171.672 231.297 171.53 231.163C171.391 231.03 171.321 230.869 171.321 230.682C171.321 230.494 171.391 230.334 171.53 230.2C171.672 230.067 171.841 230 172.037 230C172.233 230 172.401 230.067 172.54 230.2C172.682 230.334 172.753 230.494 172.753 230.682C172.753 230.869 172.682 231.03 172.54 231.163C172.401 231.297 172.233 231.364 172.037 231.364ZM177.118 239.136C176.487 239.136 175.943 238.997 175.486 238.719C175.031 238.438 174.68 238.045 174.433 237.543C174.189 237.037 174.067 236.449 174.067 235.778C174.067 235.108 174.189 234.517 174.433 234.006C174.68 233.491 175.024 233.091 175.464 232.804C175.908 232.514 176.425 232.369 177.016 232.369C177.357 232.369 177.693 232.426 178.026 232.54C178.358 232.653 178.661 232.838 178.933 233.094C179.206 233.347 179.423 233.682 179.585 234.099C179.747 234.517 179.828 235.031 179.828 235.642V236.068H174.783V235.199H178.805C178.805 234.83 178.732 234.5 178.584 234.21C178.439 233.92 178.232 233.692 177.962 233.524C177.695 233.357 177.379 233.273 177.016 233.273C176.615 233.273 176.268 233.372 175.976 233.571C175.686 233.767 175.463 234.023 175.307 234.338C175.151 234.653 175.072 234.991 175.072 235.352V235.932C175.072 236.426 175.158 236.845 175.328 237.189C175.501 237.53 175.741 237.79 176.048 237.969C176.355 238.145 176.712 238.233 177.118 238.233C177.382 238.233 177.621 238.196 177.834 238.122C178.05 238.045 178.236 237.932 178.392 237.781C178.548 237.628 178.669 237.437 178.754 237.21L179.726 237.483C179.624 237.812 179.452 238.102 179.21 238.352C178.969 238.599 178.67 238.793 178.315 238.932C177.96 239.068 177.561 239.136 177.118 239.136ZM182.364 230.273V239H181.358V230.273H182.364ZM186.677 239.136C186.132 239.136 185.65 238.999 185.233 238.723C184.815 238.445 184.488 238.053 184.252 237.547C184.017 237.038 183.899 236.438 183.899 235.744C183.899 235.057 184.017 234.46 184.252 233.955C184.488 233.449 184.816 233.058 185.237 232.783C185.657 232.507 186.143 232.369 186.694 232.369C187.12 232.369 187.457 232.44 187.704 232.582C187.954 232.722 188.145 232.881 188.275 233.06C188.409 233.236 188.512 233.381 188.586 233.494H188.672V230.273H189.677V239H188.706V237.994H188.586C188.512 238.114 188.407 238.264 188.271 238.446C188.135 238.625 187.94 238.786 187.687 238.928C187.434 239.067 187.098 239.136 186.677 239.136ZM186.814 238.233C187.217 238.233 187.558 238.128 187.836 237.918C188.115 237.705 188.326 237.411 188.471 237.036C188.616 236.658 188.689 236.222 188.689 235.727C188.689 235.239 188.618 234.811 188.475 234.445C188.333 234.075 188.123 233.788 187.845 233.584C187.566 233.376 187.223 233.273 186.814 233.273C186.387 233.273 186.032 233.382 185.748 233.601C185.467 233.817 185.255 234.111 185.113 234.483C184.974 234.852 184.904 235.267 184.904 235.727C184.904 236.193 184.975 236.616 185.118 236.997C185.262 237.375 185.475 237.676 185.757 237.901C186.041 238.122 186.393 238.233 186.814 238.233ZM195.034 239V232.455H196.039V239H195.034ZM195.545 231.364C195.349 231.364 195.18 231.297 195.038 231.163C194.899 231.03 194.829 230.869 194.829 230.682C194.829 230.494 194.899 230.334 195.038 230.2C195.18 230.067 195.349 230 195.545 230C195.741 230 195.909 230.067 196.048 230.2C196.19 230.334 196.261 230.494 196.261 230.682C196.261 230.869 196.19 231.03 196.048 231.163C195.909 231.297 195.741 231.364 195.545 231.364ZM202.518 233.92L201.614 234.176C201.558 234.026 201.474 233.879 201.363 233.737C201.255 233.592 201.107 233.473 200.92 233.379C200.732 233.286 200.492 233.239 200.2 233.239C199.799 233.239 199.465 233.331 199.198 233.516C198.934 233.697 198.802 233.929 198.802 234.21C198.802 234.46 198.893 234.658 199.075 234.803C199.256 234.947 199.54 235.068 199.927 235.165L200.898 235.403C201.484 235.545 201.92 235.763 202.207 236.055C202.494 236.345 202.637 236.719 202.637 237.176C202.637 237.551 202.529 237.886 202.313 238.182C202.1 238.477 201.802 238.71 201.418 238.881C201.035 239.051 200.589 239.136 200.08 239.136C199.413 239.136 198.86 238.991 198.423 238.702C197.985 238.412 197.708 237.989 197.592 237.432L198.546 237.193C198.637 237.545 198.809 237.81 199.062 237.986C199.317 238.162 199.651 238.25 200.063 238.25C200.532 238.25 200.904 238.151 201.18 237.952C201.458 237.75 201.597 237.509 201.597 237.227C201.597 237 201.518 236.81 201.359 236.656C201.2 236.5 200.955 236.384 200.626 236.307L199.535 236.051C198.935 235.909 198.495 235.689 198.214 235.391C197.935 235.089 197.796 234.713 197.796 234.261C197.796 233.892 197.9 233.565 198.107 233.281C198.317 232.997 198.603 232.774 198.964 232.612C199.327 232.45 199.739 232.369 200.2 232.369C200.847 232.369 201.356 232.511 201.725 232.795C202.097 233.08 202.362 233.455 202.518 233.92ZM207.526 239V232.455H208.498V233.443H208.566C208.685 233.119 208.901 232.857 209.213 232.655C209.526 232.453 209.878 232.352 210.27 232.352C210.344 232.352 210.436 232.354 210.547 232.357C210.658 232.359 210.742 232.364 210.799 232.369V233.392C210.765 233.384 210.686 233.371 210.564 233.354C210.445 233.334 210.319 233.324 210.185 233.324C209.867 233.324 209.583 233.391 209.333 233.524C209.086 233.655 208.89 233.837 208.745 234.07C208.603 234.3 208.532 234.562 208.532 234.858V239H207.526ZM214.536 239.136C213.905 239.136 213.361 238.997 212.904 238.719C212.449 238.438 212.098 238.045 211.851 237.543C211.607 237.037 211.485 236.449 211.485 235.778C211.485 235.108 211.607 234.517 211.851 234.006C212.098 233.491 212.442 233.091 212.882 232.804C213.326 232.514 213.843 232.369 214.434 232.369C214.775 232.369 215.111 232.426 215.444 232.54C215.776 232.653 216.078 232.838 216.351 233.094C216.624 233.347 216.841 233.682 217.003 234.099C217.165 234.517 217.246 235.031 217.246 235.642V236.068H212.201V235.199H216.223C216.223 234.83 216.15 234.5 216.002 234.21C215.857 233.92 215.65 233.692 215.38 233.524C215.113 233.357 214.797 233.273 214.434 233.273C214.033 233.273 213.686 233.372 213.394 233.571C213.104 233.767 212.881 234.023 212.725 234.338C212.569 234.653 212.49 234.991 212.49 235.352V235.932C212.49 236.426 212.576 236.845 212.746 237.189C212.919 237.53 213.159 237.79 213.466 237.969C213.773 238.145 214.13 238.233 214.536 238.233C214.8 238.233 215.039 238.196 215.252 238.122C215.468 238.045 215.654 237.932 215.81 237.781C215.966 237.628 216.087 237.437 216.172 237.21L217.144 237.483C217.042 237.812 216.87 238.102 216.628 238.352C216.387 238.599 216.088 238.793 215.733 238.932C215.378 239.068 214.979 239.136 214.536 239.136ZM223.242 241.455V237.994H223.157C223.083 238.114 222.978 238.264 222.841 238.446C222.705 238.625 222.51 238.786 222.257 238.928C222.005 239.067 221.668 239.136 221.248 239.136C220.702 239.136 220.221 238.999 219.803 238.723C219.385 238.445 219.059 238.053 218.823 237.547C218.587 237.038 218.469 236.438 218.469 235.744C218.469 235.057 218.587 234.46 218.823 233.955C219.059 233.449 219.387 233.058 219.807 232.783C220.228 232.507 220.713 232.369 221.265 232.369C221.691 232.369 222.027 232.44 222.275 232.582C222.525 232.722 222.715 232.881 222.846 233.06C222.979 233.236 223.083 233.381 223.157 233.494H223.276V232.455H224.248V241.455H223.242ZM221.384 238.233C221.787 238.233 222.128 238.128 222.407 237.918C222.685 237.705 222.897 237.411 223.042 237.036C223.186 236.658 223.259 236.222 223.259 235.727C223.259 235.239 223.188 234.811 223.046 234.445C222.904 234.075 222.694 233.788 222.415 233.584C222.137 233.376 221.793 233.273 221.384 233.273C220.958 233.273 220.603 233.382 220.319 233.601C220.037 233.817 219.826 234.111 219.684 234.483C219.544 234.852 219.475 235.267 219.475 235.727C219.475 236.193 219.546 236.616 219.688 236.997C219.833 237.375 220.046 237.676 220.327 237.901C220.611 238.122 220.963 238.233 221.384 238.233ZM230.213 236.324V232.455H231.219V239H230.213V237.892H230.145C229.992 238.224 229.753 238.507 229.429 238.74C229.105 238.97 228.696 239.085 228.202 239.085C227.793 239.085 227.429 238.996 227.111 238.817C226.793 238.635 226.543 238.362 226.361 237.999C226.179 237.632 226.088 237.17 226.088 236.614V232.455H227.094V236.545C227.094 237.023 227.228 237.403 227.495 237.688C227.765 237.972 228.108 238.114 228.526 238.114C228.776 238.114 229.03 238.05 229.289 237.922C229.55 237.794 229.769 237.598 229.945 237.334C230.124 237.07 230.213 236.733 230.213 236.324ZM233.061 239V232.455H234.067V239H233.061ZM233.572 231.364C233.376 231.364 233.207 231.297 233.065 231.163C232.926 231.03 232.857 230.869 232.857 230.682C232.857 230.494 232.926 230.334 233.065 230.2C233.207 230.067 233.376 230 233.572 230C233.768 230 233.936 230.067 234.075 230.2C234.217 230.334 234.288 230.494 234.288 230.682C234.288 230.869 234.217 231.03 234.075 231.163C233.936 231.297 233.768 231.364 233.572 231.364ZM235.909 239V232.455H236.88V233.443H236.949C237.068 233.119 237.284 232.857 237.596 232.655C237.909 232.453 238.261 232.352 238.653 232.352C238.727 232.352 238.819 232.354 238.93 232.357C239.041 232.359 239.125 232.364 239.181 232.369V233.392C239.147 233.384 239.069 233.371 238.947 233.354C238.828 233.334 238.701 233.324 238.568 233.324C238.25 233.324 237.966 233.391 237.716 233.524C237.468 233.655 237.272 233.837 237.127 234.07C236.985 234.3 236.914 234.562 236.914 234.858V239H235.909ZM242.919 239.136C242.288 239.136 241.744 238.997 241.287 238.719C240.832 238.438 240.481 238.045 240.234 237.543C239.99 237.037 239.868 236.449 239.868 235.778C239.868 235.108 239.99 234.517 240.234 234.006C240.481 233.491 240.825 233.091 241.265 232.804C241.708 232.514 242.225 232.369 242.816 232.369C243.157 232.369 243.494 232.426 243.826 232.54C244.159 232.653 244.461 232.838 244.734 233.094C245.007 233.347 245.224 233.682 245.386 234.099C245.548 234.517 245.629 235.031 245.629 235.642V236.068H240.583V235.199H244.606C244.606 234.83 244.532 234.5 244.385 234.21C244.24 233.92 244.032 233.692 243.762 233.524C243.495 233.357 243.18 233.273 242.816 233.273C242.416 233.273 242.069 233.372 241.777 233.571C241.487 233.767 241.264 234.023 241.108 234.338C240.951 234.653 240.873 234.991 240.873 235.352V235.932C240.873 236.426 240.958 236.845 241.129 237.189C241.302 237.53 241.542 237.79 241.849 237.969C242.156 238.145 242.512 238.233 242.919 238.233C243.183 238.233 243.422 238.196 243.635 238.122C243.85 238.045 244.037 237.932 244.193 237.781C244.349 237.628 244.47 237.437 244.555 237.21L245.527 237.483C245.424 237.812 245.252 238.102 245.011 238.352C244.77 238.599 244.471 238.793 244.116 238.932C243.761 239.068 243.362 239.136 242.919 239.136ZM249.63 239.136C249.085 239.136 248.603 238.999 248.186 238.723C247.768 238.445 247.441 238.053 247.206 237.547C246.97 237.038 246.852 236.438 246.852 235.744C246.852 235.057 246.97 234.46 247.206 233.955C247.441 233.449 247.77 233.058 248.19 232.783C248.61 232.507 249.096 232.369 249.647 232.369C250.074 232.369 250.41 232.44 250.657 232.582C250.907 232.722 251.098 232.881 251.228 233.06C251.362 233.236 251.466 233.381 251.539 233.494H251.625V230.273H252.63V239H251.659V237.994H251.539C251.466 238.114 251.36 238.264 251.224 238.446C251.088 238.625 250.893 238.786 250.64 238.928C250.387 239.067 250.051 239.136 249.63 239.136ZM249.767 238.233C250.17 238.233 250.511 238.128 250.789 237.918C251.068 237.705 251.279 237.411 251.424 237.036C251.569 236.658 251.642 236.222 251.642 235.727C251.642 235.239 251.571 234.811 251.429 234.445C251.287 234.075 251.076 233.788 250.798 233.584C250.52 233.376 250.176 233.273 249.767 233.273C249.341 233.273 248.985 233.382 248.701 233.601C248.42 233.817 248.208 234.111 248.066 234.483C247.927 234.852 247.858 235.267 247.858 235.727C247.858 236.193 247.929 236.616 248.071 236.997C248.216 237.375 248.429 237.676 248.71 237.901C248.994 238.122 249.346 238.233 249.767 238.233Z" fill="#EB5757"/>
<path d="M107.833 80C107.833 81.4728 109.027 82.6667 110.5 82.6667C111.973 82.6667 113.167 81.4728 113.167 80C113.167 78.5272 111.973 77.3333 110.5 77.3333C109.027 77.3333 107.833 78.5272 107.833 80ZM79 80L84 82.8868V77.1132L79 80ZM110.5 79.5H83.5V80.5H110.5V79.5Z" fill="white"/>
<path d="M41.948 84V83.304H43.568V76.716H42.02V76.02H44.444V83.304H46.052V84H41.948ZM49.532 84.132C48.908 84.132 48.428 83.992 48.092 83.712C47.756 83.424 47.588 83.06 47.588 82.62C47.588 82.324 47.66 82.06 47.804 81.828C47.948 81.588 48.144 81.388 48.392 81.228C48.648 81.06 48.944 80.932 49.28 80.844C49.616 80.756 49.972 80.712 50.348 80.712C50.484 80.712 50.62 80.716 50.756 80.724C50.9 80.724 51.048 80.732 51.2 80.748C51.36 80.756 51.524 80.772 51.692 80.796L51.716 81.456C51.572 81.432 51.424 81.416 51.272 81.408C51.128 81.392 50.984 81.38 50.84 81.372C50.696 81.364 50.556 81.36 50.42 81.36C50.132 81.36 49.868 81.384 49.628 81.432C49.388 81.48 49.18 81.552 49.004 81.648C48.828 81.744 48.692 81.868 48.596 82.02C48.5 82.172 48.452 82.356 48.452 82.572C48.452 82.74 48.48 82.884 48.536 83.004C48.6 83.116 48.684 83.208 48.788 83.28C48.892 83.344 49.012 83.392 49.148 83.424C49.292 83.456 49.448 83.472 49.616 83.472C49.928 83.472 50.204 83.424 50.444 83.328C50.692 83.224 50.9 83.076 51.068 82.884C51.244 82.692 51.376 82.456 51.464 82.176C51.552 81.896 51.596 81.576 51.596 81.216C51.596 80.672 51.532 80.248 51.404 79.944C51.276 79.64 51.084 79.424 50.828 79.296C50.58 79.168 50.26 79.104 49.868 79.104C49.604 79.104 49.344 79.156 49.088 79.26C48.832 79.356 48.6 79.508 48.392 79.716L47.972 79.164C48.228 78.908 48.524 78.716 48.86 78.588C49.196 78.46 49.552 78.396 49.928 78.396C50.288 78.396 50.616 78.44 50.912 78.528C51.208 78.616 51.46 78.764 51.668 78.972C51.884 79.172 52.048 79.444 52.16 79.788C52.28 80.132 52.34 80.564 52.34 81.084V84H51.404V83.16C51.3 83.36 51.172 83.524 51.02 83.652C50.876 83.78 50.72 83.88 50.552 83.952C50.384 84.016 50.212 84.06 50.036 84.084C49.86 84.116 49.692 84.132 49.532 84.132ZM56.192 84.132C55.968 84.132 55.756 84.096 55.556 84.024C55.356 83.96 55.172 83.864 55.004 83.736C54.844 83.608 54.7 83.456 54.572 83.28L54.272 84H53.72V76.02H54.584H54.704V76.104C54.656 76.152 54.624 76.204 54.608 76.26C54.6 76.316 54.596 76.412 54.596 76.548V79.356C54.684 79.212 54.788 79.08 54.908 78.96C55.028 78.84 55.16 78.736 55.304 78.648C55.448 78.56 55.6 78.496 55.76 78.456C55.92 78.408 56.076 78.384 56.228 78.384C56.564 78.384 56.868 78.444 57.14 78.564C57.42 78.676 57.66 78.852 57.86 79.092C58.06 79.324 58.212 79.616 58.316 79.968C58.428 80.32 58.484 80.732 58.484 81.204C58.484 81.692 58.42 82.12 58.292 82.488C58.164 82.856 57.988 83.164 57.764 83.412C57.548 83.652 57.304 83.832 57.032 83.952C56.76 84.072 56.48 84.132 56.192 84.132ZM56.084 83.364C56.276 83.364 56.46 83.328 56.636 83.256C56.82 83.184 56.984 83.068 57.128 82.908C57.272 82.74 57.384 82.52 57.464 82.248C57.552 81.976 57.596 81.644 57.596 81.252C57.596 80.892 57.56 80.58 57.488 80.316C57.416 80.044 57.312 79.82 57.176 79.644C57.048 79.468 56.892 79.34 56.708 79.26C56.524 79.172 56.324 79.128 56.108 79.128C55.812 79.128 55.548 79.22 55.316 79.404C55.092 79.58 54.916 79.832 54.788 80.16C54.66 80.48 54.596 80.852 54.596 81.276C54.596 81.588 54.624 81.872 54.68 82.128C54.736 82.384 54.82 82.604 54.932 82.788C55.052 82.972 55.204 83.116 55.388 83.22C55.58 83.316 55.812 83.364 56.084 83.364ZM62.264 84.12C61.864 84.12 61.5 84.06 61.172 83.94C60.844 83.812 60.56 83.628 60.32 83.388C60.088 83.148 59.908 82.852 59.78 82.5C59.652 82.14 59.588 81.732 59.588 81.276C59.588 80.812 59.652 80.4 59.78 80.04C59.916 79.68 60.096 79.38 60.32 79.14C60.552 78.892 60.82 78.704 61.124 78.576C61.436 78.448 61.764 78.384 62.108 78.384C62.42 78.384 62.712 78.436 62.984 78.54C63.256 78.644 63.492 78.804 63.692 79.02C63.892 79.228 64.048 79.496 64.16 79.824C64.28 80.152 64.34 80.54 64.34 80.988C64.34 81.052 64.336 81.12 64.328 81.192C64.328 81.256 64.324 81.32 64.316 81.384H60.416C60.432 81.736 60.492 82.044 60.596 82.308C60.7 82.564 60.836 82.776 61.004 82.944C61.172 83.104 61.364 83.224 61.58 83.304C61.804 83.384 62.04 83.424 62.288 83.424C62.48 83.424 62.66 83.404 62.828 83.364C62.996 83.316 63.152 83.248 63.296 83.16C63.448 83.064 63.584 82.948 63.704 82.812L64.184 83.28C64.032 83.464 63.856 83.62 63.656 83.748C63.464 83.876 63.252 83.968 63.02 84.024C62.788 84.088 62.536 84.12 62.264 84.12ZM60.452 80.712H63.464C63.464 80.456 63.428 80.228 63.356 80.028C63.292 79.82 63.196 79.644 63.068 79.5C62.948 79.348 62.8 79.236 62.624 79.164C62.456 79.084 62.264 79.044 62.048 79.044C61.856 79.044 61.672 79.076 61.496 79.14C61.328 79.204 61.172 79.308 61.028 79.452C60.884 79.588 60.76 79.76 60.656 79.968C60.56 80.176 60.492 80.424 60.452 80.712ZM65.948 84V83.304H67.568V76.716H66.02V76.02H68.444V83.304H70.052V84H65.948Z" fill="white"/>
<path d="M35 162.096C34.504 162.096 34.064 161.976 33.68 161.736C33.304 161.488 33.008 161.152 32.792 160.728C32.576 160.296 32.468 159.804 32.468 159.252C32.468 158.692 32.576 158.2 32.792 157.776C33.008 157.344 33.304 157.008 33.68 156.768C34.064 156.52 34.504 156.396 35 156.396C35.496 156.396 35.932 156.52 36.308 156.768C36.692 157.008 36.992 157.344 37.208 157.776C37.424 158.2 37.532 158.692 37.532 159.252C37.532 159.804 37.424 160.296 37.208 160.728C36.992 161.152 36.692 161.488 36.308 161.736C35.932 161.976 35.496 162.096 35 162.096ZM35 161.376C35.32 161.376 35.6 161.284 35.84 161.1C36.08 160.916 36.268 160.664 36.404 160.344C36.548 160.024 36.62 159.656 36.62 159.24C36.62 158.824 36.548 158.456 36.404 158.136C36.268 157.816 36.08 157.568 35.84 157.392C35.6 157.208 35.32 157.116 35 157.116C34.688 157.116 34.408 157.208 34.16 157.392C33.92 157.568 33.728 157.816 33.584 158.136C33.448 158.456 33.38 158.824 33.38 159.24C33.38 159.656 33.448 160.024 33.584 160.344C33.728 160.664 33.92 160.916 34.16 161.1C34.408 161.284 34.688 161.376 35 161.376ZM38.72 164.004V156.516H39.596V157.596C39.684 157.316 39.808 157.088 39.968 156.912C40.136 156.736 40.328 156.608 40.544 156.528C40.768 156.44 41.008 156.396 41.264 156.396C41.568 156.396 41.856 156.456 42.128 156.576C42.408 156.688 42.652 156.86 42.86 157.092C43.076 157.324 43.244 157.616 43.364 157.968C43.492 158.32 43.556 158.736 43.556 159.216C43.556 159.696 43.488 160.12 43.352 160.488C43.224 160.856 43.048 161.164 42.824 161.412C42.608 161.652 42.36 161.836 42.08 161.964C41.808 162.084 41.528 162.144 41.24 162.144C41.024 162.144 40.812 162.108 40.604 162.036C40.404 161.972 40.22 161.876 40.052 161.748C39.884 161.612 39.736 161.456 39.608 161.28V164.004H38.72ZM41.096 161.376C41.288 161.376 41.476 161.344 41.66 161.28C41.844 161.208 42.012 161.092 42.164 160.932C42.316 160.772 42.436 160.556 42.524 160.284C42.612 160.004 42.656 159.66 42.656 159.252C42.656 158.812 42.6 158.44 42.488 158.136C42.376 157.824 42.212 157.584 41.996 157.416C41.788 157.248 41.532 157.156 41.228 157.14C41.004 157.124 40.792 157.156 40.592 157.236C40.4 157.316 40.228 157.448 40.076 157.632C39.924 157.816 39.804 158.06 39.716 158.364C39.636 158.66 39.596 159.02 39.596 159.444C39.604 159.7 39.632 159.932 39.68 160.14C39.728 160.348 39.796 160.532 39.884 160.692C39.972 160.844 40.076 160.972 40.196 161.076C40.316 161.172 40.452 161.248 40.604 161.304C40.756 161.352 40.92 161.376 41.096 161.376ZM47.588 162.084C47.236 162.084 46.948 162.024 46.724 161.904C46.5 161.784 46.328 161.6 46.208 161.352C46.088 161.096 46.008 160.776 45.968 160.392C45.936 160.008 45.928 159.552 45.944 159.024L46.088 155.112L46.988 155.004L47.108 154.992L47.12 155.076C47.08 155.132 47.044 155.188 47.012 155.244C46.988 155.3 46.968 155.396 46.952 155.532L46.844 156.888L46.88 157.104L46.796 159.084C46.772 159.692 46.788 160.164 46.844 160.5C46.9 160.828 47 161.056 47.144 161.184C47.288 161.304 47.48 161.364 47.72 161.364C47.984 161.364 48.216 161.312 48.416 161.208C48.624 161.104 48.84 160.972 49.064 160.812L49.328 161.496C49.056 161.696 48.776 161.844 48.488 161.94C48.2 162.036 47.9 162.084 47.588 162.084ZM44.84 156.516H48.788V157.224H44.84V156.516ZM51.2 162V161.304H52.604V157.212H51.272V156.516H53.468V161.304H54.752V162H51.2ZM52.988 155.364C52.82 155.364 52.676 155.304 52.556 155.184C52.436 155.064 52.376 154.92 52.376 154.752C52.376 154.576 52.432 154.428 52.544 154.308C52.664 154.188 52.812 154.128 52.988 154.128C53.156 154.128 53.3 154.192 53.42 154.32C53.548 154.44 53.612 154.584 53.612 154.752C53.612 154.92 53.548 155.064 53.42 155.184C53.3 155.304 53.156 155.364 52.988 155.364ZM59 162.096C58.504 162.096 58.064 161.976 57.68 161.736C57.304 161.488 57.008 161.152 56.792 160.728C56.576 160.296 56.468 159.804 56.468 159.252C56.468 158.692 56.576 158.2 56.792 157.776C57.008 157.344 57.304 157.008 57.68 156.768C58.064 156.52 58.504 156.396 59 156.396C59.496 156.396 59.932 156.52 60.308 156.768C60.692 157.008 60.992 157.344 61.208 157.776C61.424 158.2 61.532 158.692 61.532 159.252C61.532 159.804 61.424 160.296 61.208 160.728C60.992 161.152 60.692 161.488 60.308 161.736C59.932 161.976 59.496 162.096 59 162.096ZM59 161.376C59.32 161.376 59.6 161.284 59.84 161.1C60.08 160.916 60.268 160.664 60.404 160.344C60.548 160.024 60.62 159.656 60.62 159.24C60.62 158.824 60.548 158.456 60.404 158.136C60.268 157.816 60.08 157.568 59.84 157.392C59.6 157.208 59.32 157.116 59 157.116C58.688 157.116 58.408 157.208 58.16 157.392C57.92 157.568 57.728 157.816 57.584 158.136C57.448 158.456 57.38 158.824 57.38 159.24C57.38 159.656 57.448 160.024 57.584 160.344C57.728 160.664 57.92 160.916 58.16 161.1C58.408 161.284 58.688 161.376 59 161.376ZM62.864 162V156.516H63.704V157.488C63.848 157.264 64.016 157.072 64.208 156.912C64.4 156.744 64.612 156.616 64.844 156.528C65.076 156.432 65.316 156.384 65.564 156.384C65.868 156.384 66.14 156.46 66.38 156.612C66.62 156.764 66.812 157.008 66.956 157.344C67.1 157.68 67.172 158.124 67.172 158.676V162H66.332V158.7C66.332 158.316 66.288 158.012 66.2 157.788C66.112 157.556 65.992 157.392 65.84 157.296C65.688 157.192 65.516 157.14 65.324 157.14C65.14 157.14 64.952 157.18 64.76 157.26C64.576 157.34 64.404 157.456 64.244 157.608C64.084 157.752 63.952 157.928 63.848 158.136C63.752 158.344 63.704 158.58 63.704 158.844V162H62.864ZM71.012 162.12C70.708 162.12 70.416 162.088 70.136 162.024C69.864 161.96 69.604 161.864 69.356 161.736C69.116 161.608 68.892 161.448 68.684 161.256L69.164 160.44L69.236 160.332L69.308 160.38C69.324 160.444 69.34 160.512 69.356 160.584C69.38 160.648 69.436 160.728 69.524 160.824C69.692 160.992 69.892 161.132 70.124 161.244C70.364 161.348 70.668 161.4 71.036 161.4C71.332 161.4 71.58 161.364 71.78 161.292C71.988 161.22 72.148 161.12 72.26 160.992C72.372 160.856 72.428 160.7 72.428 160.524C72.428 160.404 72.404 160.3 72.356 160.212C72.308 160.116 72.228 160.028 72.116 159.948C72.012 159.868 71.872 159.788 71.696 159.708C71.52 159.628 71.304 159.548 71.048 159.468C70.632 159.348 70.268 159.208 69.956 159.048C69.644 158.888 69.404 158.704 69.236 158.496C69.068 158.28 68.984 158.036 68.984 157.764C68.984 157.484 69.06 157.244 69.212 157.044C69.364 156.836 69.588 156.676 69.884 156.564C70.188 156.444 70.56 156.384 71 156.384C71.256 156.384 71.488 156.404 71.696 156.444C71.904 156.476 72.096 156.528 72.272 156.6C72.448 156.672 72.608 156.764 72.752 156.876C72.904 156.98 73.048 157.104 73.184 157.248L72.692 157.848L72.608 157.944L72.548 157.884C72.54 157.82 72.52 157.76 72.488 157.704C72.464 157.64 72.408 157.564 72.32 157.476C72.136 157.332 71.928 157.224 71.696 157.152C71.464 157.072 71.24 157.032 71.024 157.032C70.704 157.032 70.428 157.088 70.196 157.2C69.964 157.312 69.848 157.484 69.848 157.716C69.848 157.836 69.888 157.956 69.968 158.076C70.056 158.188 70.212 158.304 70.436 158.424C70.66 158.536 70.98 158.652 71.396 158.772C71.852 158.916 72.216 159.064 72.488 159.216C72.768 159.36 72.968 159.528 73.088 159.72C73.216 159.912 73.28 160.14 73.28 160.404C73.28 160.708 73.196 160.992 73.028 161.256C72.868 161.52 72.62 161.732 72.284 161.892C71.948 162.044 71.524 162.12 71.012 162.12Z" fill="white"/>
<path d="M178.2 43V42.304H179.604V38.212H178.272V37.516H180.468V42.304H181.752V43H178.2ZM179.988 36.364C179.82 36.364 179.676 36.304 179.556 36.184C179.436 36.064 179.376 35.92 179.376 35.752C179.376 35.576 179.432 35.428 179.544 35.308C179.664 35.188 179.812 35.128 179.988 35.128C180.156 35.128 180.3 35.192 180.42 35.32C180.548 35.44 180.612 35.584 180.612 35.752C180.612 35.92 180.548 36.064 180.42 36.184C180.3 36.304 180.156 36.364 179.988 36.364ZM186.012 43.12C185.708 43.12 185.416 43.088 185.136 43.024C184.864 42.96 184.604 42.864 184.356 42.736C184.116 42.608 183.892 42.448 183.684 42.256L184.164 41.44L184.236 41.332L184.308 41.38C184.324 41.444 184.34 41.512 184.356 41.584C184.38 41.648 184.436 41.728 184.524 41.824C184.692 41.992 184.892 42.132 185.124 42.244C185.364 42.348 185.668 42.4 186.036 42.4C186.332 42.4 186.58 42.364 186.78 42.292C186.988 42.22 187.148 42.12 187.26 41.992C187.372 41.856 187.428 41.7 187.428 41.524C187.428 41.404 187.404 41.3 187.356 41.212C187.308 41.116 187.228 41.028 187.116 40.948C187.012 40.868 186.872 40.788 186.696 40.708C186.52 40.628 186.304 40.548 186.048 40.468C185.632 40.348 185.268 40.208 184.956 40.048C184.644 39.888 184.404 39.704 184.236 39.496C184.068 39.28 183.984 39.036 183.984 38.764C183.984 38.484 184.06 38.244 184.212 38.044C184.364 37.836 184.588 37.676 184.884 37.564C185.188 37.444 185.56 37.384 186 37.384C186.256 37.384 186.488 37.404 186.696 37.444C186.904 37.476 187.096 37.528 187.272 37.6C187.448 37.672 187.608 37.764 187.752 37.876C187.904 37.98 188.048 38.104 188.184 38.248L187.692 38.848L187.608 38.944L187.548 38.884C187.54 38.82 187.52 38.76 187.488 38.704C187.464 38.64 187.408 38.564 187.32 38.476C187.136 38.332 186.928 38.224 186.696 38.152C186.464 38.072 186.24 38.032 186.024 38.032C185.704 38.032 185.428 38.088 185.196 38.2C184.964 38.312 184.848 38.484 184.848 38.716C184.848 38.836 184.888 38.956 184.968 39.076C185.056 39.188 185.212 39.304 185.436 39.424C185.66 39.536 185.98 39.652 186.396 39.772C186.852 39.916 187.216 40.064 187.488 40.216C187.768 40.36 187.968 40.528 188.088 40.72C188.216 40.912 188.28 41.14 188.28 41.404C188.28 41.708 188.196 41.992 188.028 42.256C187.868 42.52 187.62 42.732 187.284 42.892C186.948 43.044 186.524 43.12 186.012 43.12ZM189.672 43V35.524H191.88C192.472 35.524 192.948 35.612 193.308 35.788C193.676 35.964 193.944 36.212 194.112 36.532C194.28 36.852 194.364 37.228 194.364 37.66C194.364 37.94 194.3 38.22 194.172 38.5C194.052 38.78 193.876 39.024 193.644 39.232C193.42 39.44 193.152 39.584 192.84 39.664L194.568 43H193.632L191.976 39.7H190.524V43H189.672ZM190.524 38.956H191.976C192.512 38.956 192.9 38.84 193.14 38.608C193.38 38.368 193.5 38.052 193.5 37.66C193.5 37.412 193.448 37.188 193.344 36.988C193.24 36.78 193.076 36.616 192.852 36.496C192.628 36.376 192.336 36.316 191.976 36.316H190.524V38.956ZM198.264 43.12C197.864 43.12 197.5 43.06 197.172 42.94C196.844 42.812 196.56 42.628 196.32 42.388C196.088 42.148 195.908 41.852 195.78 41.5C195.652 41.14 195.588 40.732 195.588 40.276C195.588 39.812 195.652 39.4 195.78 39.04C195.916 38.68 196.096 38.38 196.32 38.14C196.552 37.892 196.82 37.704 197.124 37.576C197.436 37.448 197.764 37.384 198.108 37.384C198.42 37.384 198.712 37.436 198.984 37.54C199.256 37.644 199.492 37.804 199.692 38.02C199.892 38.228 200.048 38.496 200.16 38.824C200.28 39.152 200.34 39.54 200.34 39.988C200.34 40.052 200.336 40.12 200.328 40.192C200.328 40.256 200.324 40.32 200.316 40.384H196.416C196.432 40.736 196.492 41.044 196.596 41.308C196.7 41.564 196.836 41.776 197.004 41.944C197.172 42.104 197.364 42.224 197.58 42.304C197.804 42.384 198.04 42.424 198.288 42.424C198.48 42.424 198.66 42.404 198.828 42.364C198.996 42.316 199.152 42.248 199.296 42.16C199.448 42.064 199.584 41.948 199.704 41.812L200.184 42.28C200.032 42.464 199.856 42.62 199.656 42.748C199.464 42.876 199.252 42.968 199.02 43.024C198.788 43.088 198.536 43.12 198.264 43.12ZM196.452 39.712H199.464C199.464 39.456 199.428 39.228 199.356 39.028C199.292 38.82 199.196 38.644 199.068 38.5C198.948 38.348 198.8 38.236 198.624 38.164C198.456 38.084 198.264 38.044 198.048 38.044C197.856 38.044 197.672 38.076 197.496 38.14C197.328 38.204 197.172 38.308 197.028 38.452C196.884 38.588 196.76 38.76 196.656 38.968C196.56 39.176 196.492 39.424 196.452 39.712ZM205.44 45.004V42.124C205.328 42.324 205.184 42.5 205.008 42.652C204.84 42.804 204.648 42.92 204.432 43C204.224 43.08 204 43.12 203.76 43.12C203.448 43.12 203.152 43.052 202.872 42.916C202.6 42.772 202.36 42.576 202.152 42.328C201.952 42.072 201.792 41.768 201.672 41.416C201.56 41.064 201.504 40.672 201.504 40.24C201.504 39.784 201.568 39.38 201.696 39.028C201.824 38.676 201.996 38.376 202.212 38.128C202.436 37.88 202.692 37.692 202.98 37.564C203.276 37.436 203.588 37.372 203.916 37.372C204.108 37.372 204.284 37.396 204.444 37.444C204.604 37.484 204.748 37.544 204.876 37.624C205.012 37.704 205.128 37.804 205.224 37.924C205.328 38.044 205.416 38.176 205.488 38.32V37.516H206.304V45.004H205.44ZM203.916 42.364C204.124 42.364 204.316 42.324 204.492 42.244C204.676 42.156 204.836 42.024 204.972 41.848C205.116 41.664 205.224 41.428 205.296 41.14C205.376 40.852 205.416 40.508 205.416 40.108C205.416 39.732 205.38 39.416 205.308 39.16C205.244 38.896 205.148 38.688 205.02 38.536C204.892 38.376 204.744 38.26 204.576 38.188C204.408 38.116 204.22 38.08 204.012 38.08C203.788 38.08 203.576 38.124 203.376 38.212C203.176 38.292 203 38.42 202.848 38.596C202.704 38.764 202.588 38.984 202.5 39.256C202.42 39.52 202.38 39.836 202.38 40.204C202.38 40.54 202.416 40.84 202.488 41.104C202.56 41.368 202.664 41.596 202.8 41.788C202.936 41.972 203.096 42.116 203.28 42.22C203.472 42.316 203.684 42.364 203.916 42.364ZM209.652 43.132C209.436 43.132 209.232 43.1 209.04 43.036C208.848 42.972 208.672 42.876 208.512 42.748C208.36 42.612 208.228 42.444 208.116 42.244C208.004 42.044 207.916 41.804 207.852 41.524C207.796 41.244 207.768 40.928 207.768 40.576L207.78 37.516H208.62V40.576C208.62 40.92 208.652 41.212 208.716 41.452C208.78 41.692 208.868 41.884 208.98 42.028C209.1 42.172 209.236 42.276 209.388 42.34C209.54 42.404 209.7 42.436 209.868 42.436C210.06 42.436 210.244 42.4 210.42 42.328C210.596 42.248 210.752 42.132 210.888 41.98C211.032 41.828 211.144 41.632 211.224 41.392C211.304 41.152 211.344 40.868 211.344 40.54V37.516H212.184V42.148C212.184 42.292 212.188 42.436 212.196 42.58C212.212 42.716 212.248 42.856 212.304 43H211.476C211.436 42.904 211.408 42.812 211.392 42.724C211.376 42.628 211.364 42.532 211.356 42.436C211.356 42.34 211.356 42.248 211.356 42.16C211.268 42.312 211.164 42.448 211.044 42.568C210.924 42.688 210.788 42.792 210.636 42.88C210.492 42.96 210.336 43.02 210.168 43.06C210.008 43.108 209.836 43.132 209.652 43.132ZM214.2 43V42.304H215.604V38.212H214.272V37.516H216.468V42.304H217.752V43H214.2ZM215.988 36.364C215.82 36.364 215.676 36.304 215.556 36.184C215.436 36.064 215.376 35.92 215.376 35.752C215.376 35.576 215.432 35.428 215.544 35.308C215.664 35.188 215.812 35.128 215.988 35.128C216.156 35.128 216.3 35.192 216.42 35.32C216.548 35.44 216.612 35.584 216.612 35.752C216.612 35.92 216.548 36.064 216.42 36.184C216.3 36.304 216.156 36.364 215.988 36.364ZM220.428 37.516H221.328L221.292 39.112L221.184 38.932C221.232 38.684 221.316 38.464 221.436 38.272C221.556 38.08 221.7 37.92 221.868 37.792C222.036 37.656 222.22 37.556 222.42 37.492C222.62 37.42 222.828 37.384 223.044 37.384C223.332 37.384 223.596 37.436 223.836 37.54C224.084 37.636 224.304 37.784 224.496 37.984L224.112 38.656L224.064 38.764L223.98 38.716C223.964 38.652 223.94 38.592 223.908 38.536C223.876 38.48 223.808 38.412 223.704 38.332C223.576 38.252 223.456 38.2 223.344 38.176C223.24 38.144 223.12 38.128 222.984 38.128C222.784 38.128 222.584 38.168 222.384 38.248C222.184 38.32 222 38.436 221.832 38.596C221.672 38.756 221.544 38.96 221.448 39.208C221.352 39.456 221.304 39.752 221.304 40.096V43.012H220.428V37.516ZM228.264 43.12C227.864 43.12 227.5 43.06 227.172 42.94C226.844 42.812 226.56 42.628 226.32 42.388C226.088 42.148 225.908 41.852 225.78 41.5C225.652 41.14 225.588 40.732 225.588 40.276C225.588 39.812 225.652 39.4 225.78 39.04C225.916 38.68 226.096 38.38 226.32 38.14C226.552 37.892 226.82 37.704 227.124 37.576C227.436 37.448 227.764 37.384 228.108 37.384C228.42 37.384 228.712 37.436 228.984 37.54C229.256 37.644 229.492 37.804 229.692 38.02C229.892 38.228 230.048 38.496 230.16 38.824C230.28 39.152 230.34 39.54 230.34 39.988C230.34 40.052 230.336 40.12 230.328 40.192C230.328 40.256 230.324 40.32 230.316 40.384H226.416C226.432 40.736 226.492 41.044 226.596 41.308C226.7 41.564 226.836 41.776 227.004 41.944C227.172 42.104 227.364 42.224 227.58 42.304C227.804 42.384 228.04 42.424 228.288 42.424C228.48 42.424 228.66 42.404 228.828 42.364C228.996 42.316 229.152 42.248 229.296 42.16C229.448 42.064 229.584 41.948 229.704 41.812L230.184 42.28C230.032 42.464 229.856 42.62 229.656 42.748C229.464 42.876 229.252 42.968 229.02 43.024C228.788 43.088 228.536 43.12 228.264 43.12ZM226.452 39.712H229.464C229.464 39.456 229.428 39.228 229.356 39.028C229.292 38.82 229.196 38.644 229.068 38.5C228.948 38.348 228.8 38.236 228.624 38.164C228.456 38.084 228.264 38.044 228.048 38.044C227.856 38.044 227.672 38.076 227.496 38.14C227.328 38.204 227.172 38.308 227.028 38.452C226.884 38.588 226.76 38.76 226.656 38.968C226.56 39.176 226.492 39.424 226.452 39.712ZM233.808 43.12C233.528 43.12 233.252 43.06 232.98 42.94C232.716 42.82 232.472 42.64 232.248 42.4C232.032 42.16 231.86 41.856 231.732 41.488C231.604 41.12 231.54 40.692 231.54 40.204C231.54 39.7 231.608 39.272 231.744 38.92C231.88 38.56 232.06 38.268 232.284 38.044C232.508 37.812 232.756 37.644 233.028 37.54C233.3 37.428 233.576 37.372 233.856 37.372C234.112 37.372 234.34 37.412 234.54 37.492C234.748 37.572 234.928 37.684 235.08 37.828C235.24 37.964 235.364 38.128 235.452 38.32V35.02H236.244H236.364V35.104C236.316 35.152 236.284 35.204 236.268 35.26C236.26 35.316 236.256 35.412 236.256 35.548L236.268 42.148C236.268 42.292 236.272 42.436 236.28 42.58C236.296 42.716 236.332 42.856 236.388 43H235.536C235.496 42.904 235.468 42.808 235.452 42.712C235.436 42.616 235.424 42.524 235.416 42.436C235.416 42.34 235.416 42.244 235.416 42.148C235.304 42.34 235.168 42.512 235.008 42.664C234.848 42.808 234.668 42.92 234.468 43C234.268 43.08 234.048 43.12 233.808 43.12ZM233.94 42.364C234.204 42.364 234.428 42.312 234.612 42.208C234.796 42.096 234.944 41.944 235.056 41.752C235.168 41.552 235.248 41.324 235.296 41.068C235.352 40.804 235.38 40.524 235.38 40.228C235.38 39.82 235.328 39.456 235.224 39.136C235.12 38.808 234.956 38.552 234.732 38.368C234.508 38.176 234.22 38.08 233.868 38.08C233.628 38.08 233.412 38.128 233.22 38.224C233.036 38.312 232.88 38.444 232.752 38.62C232.632 38.796 232.54 39.008 232.476 39.256C232.412 39.496 232.38 39.768 232.38 40.072C232.38 40.528 232.44 40.928 232.56 41.272C232.68 41.616 232.856 41.884 233.088 42.076C233.32 42.268 233.604 42.364 233.94 42.364Z" fill="white"/>
<path d="M203.833 78.5C203.833 79.9728 205.027 81.1667 206.5 81.1667C207.973 81.1667 209.167 79.9728 209.167 78.5C209.167 77.0272 207.973 75.8333 206.5 75.8333C205.027 75.8333 203.833 77.0272 203.833 78.5ZM206.5 50L203.613 55H209.387L206.5 50ZM207 78.5V54.5H206V78.5H207Z" fill="white"/>
<path d="M133.333 158C133.333 159.473 134.527 160.667 136 160.667C137.473 160.667 138.667 159.473 138.667 158C138.667 156.527 137.473 155.333 136 155.333C134.527 155.333 133.333 156.527 133.333 158ZM79 158L84 160.887V155.113L79 158ZM136 157.5H83.5V158.5H136V157.5Z" fill="white"/>
<path d="M200.333 253C200.333 254.473 201.527 255.667 203 255.667C204.473 255.667 205.667 254.473 205.667 253C205.667 251.527 204.473 250.333 203 250.333C201.527 250.333 200.333 251.527 200.333 253ZM203 269L205.887 264H200.113L203 269ZM202.5 253V264.5H203.5V253H202.5Z" fill="white"/>
<path d="M153.456 284.5V279.016H154.248V279.556C154.336 279.42 154.436 279.304 154.548 279.208C154.668 279.104 154.796 279.024 154.932 278.968C155.076 278.912 155.22 278.884 155.364 278.884C155.524 278.884 155.672 278.92 155.808 278.992C155.944 279.056 156.056 279.148 156.144 279.268C156.24 279.388 156.304 279.528 156.336 279.688C156.408 279.528 156.504 279.388 156.624 279.268C156.752 279.148 156.896 279.056 157.056 278.992C157.224 278.92 157.396 278.884 157.572 278.884C157.756 278.884 157.916 278.92 158.052 278.992C158.188 279.064 158.3 279.164 158.388 279.292C158.476 279.412 158.54 279.56 158.58 279.736C158.62 279.904 158.636 280.088 158.628 280.288V284.5H157.836V280.612C157.836 280.276 157.812 280.032 157.764 279.88C157.724 279.728 157.664 279.632 157.584 279.592C157.504 279.544 157.416 279.52 157.32 279.52C157.168 279.52 157.024 279.592 156.888 279.736C156.76 279.872 156.652 280.044 156.564 280.252C156.484 280.46 156.444 280.668 156.444 280.876V284.5H155.64V280.684C155.64 280.228 155.596 279.924 155.508 279.772C155.428 279.62 155.272 279.544 155.04 279.544C154.952 279.544 154.86 279.576 154.764 279.64C154.676 279.696 154.592 279.78 154.512 279.892C154.432 279.996 154.368 280.128 154.32 280.288C154.272 280.448 154.248 280.632 154.248 280.84V284.5H153.456ZM162.264 284.62C161.864 284.62 161.5 284.56 161.172 284.44C160.844 284.312 160.56 284.128 160.32 283.888C160.088 283.648 159.908 283.352 159.78 283C159.652 282.64 159.588 282.232 159.588 281.776C159.588 281.312 159.652 280.9 159.78 280.54C159.916 280.18 160.096 279.88 160.32 279.64C160.552 279.392 160.82 279.204 161.124 279.076C161.436 278.948 161.764 278.884 162.108 278.884C162.42 278.884 162.712 278.936 162.984 279.04C163.256 279.144 163.492 279.304 163.692 279.52C163.892 279.728 164.048 279.996 164.16 280.324C164.28 280.652 164.34 281.04 164.34 281.488C164.34 281.552 164.336 281.62 164.328 281.692C164.328 281.756 164.324 281.82 164.316 281.884H160.416C160.432 282.236 160.492 282.544 160.596 282.808C160.7 283.064 160.836 283.276 161.004 283.444C161.172 283.604 161.364 283.724 161.58 283.804C161.804 283.884 162.04 283.924 162.288 283.924C162.48 283.924 162.66 283.904 162.828 283.864C162.996 283.816 163.152 283.748 163.296 283.66C163.448 283.564 163.584 283.448 163.704 283.312L164.184 283.78C164.032 283.964 163.856 284.12 163.656 284.248C163.464 284.376 163.252 284.468 163.02 284.524C162.788 284.588 162.536 284.62 162.264 284.62ZM160.452 281.212H163.464C163.464 280.956 163.428 280.728 163.356 280.528C163.292 280.32 163.196 280.144 163.068 280C162.948 279.848 162.8 279.736 162.624 279.664C162.456 279.584 162.264 279.544 162.048 279.544C161.856 279.544 161.672 279.576 161.496 279.64C161.328 279.704 161.172 279.808 161.028 279.952C160.884 280.088 160.76 280.26 160.656 280.468C160.56 280.676 160.492 280.924 160.452 281.212ZM168.012 284.62C167.708 284.62 167.416 284.588 167.136 284.524C166.864 284.46 166.604 284.364 166.356 284.236C166.116 284.108 165.892 283.948 165.684 283.756L166.164 282.94L166.236 282.832L166.308 282.88C166.324 282.944 166.34 283.012 166.356 283.084C166.38 283.148 166.436 283.228 166.524 283.324C166.692 283.492 166.892 283.632 167.124 283.744C167.364 283.848 167.668 283.9 168.036 283.9C168.332 283.9 168.58 283.864 168.78 283.792C168.988 283.72 169.148 283.62 169.26 283.492C169.372 283.356 169.428 283.2 169.428 283.024C169.428 282.904 169.404 282.8 169.356 282.712C169.308 282.616 169.228 282.528 169.116 282.448C169.012 282.368 168.872 282.288 168.696 282.208C168.52 282.128 168.304 282.048 168.048 281.968C167.632 281.848 167.268 281.708 166.956 281.548C166.644 281.388 166.404 281.204 166.236 280.996C166.068 280.78 165.984 280.536 165.984 280.264C165.984 279.984 166.06 279.744 166.212 279.544C166.364 279.336 166.588 279.176 166.884 279.064C167.188 278.944 167.56 278.884 168 278.884C168.256 278.884 168.488 278.904 168.696 278.944C168.904 278.976 169.096 279.028 169.272 279.1C169.448 279.172 169.608 279.264 169.752 279.376C169.904 279.48 170.048 279.604 170.184 279.748L169.692 280.348L169.608 280.444L169.548 280.384C169.54 280.32 169.52 280.26 169.488 280.204C169.464 280.14 169.408 280.064 169.32 279.976C169.136 279.832 168.928 279.724 168.696 279.652C168.464 279.572 168.24 279.532 168.024 279.532C167.704 279.532 167.428 279.588 167.196 279.7C166.964 279.812 166.848 279.984 166.848 280.216C166.848 280.336 166.888 280.456 166.968 280.576C167.056 280.688 167.212 280.804 167.436 280.924C167.66 281.036 167.98 281.152 168.396 281.272C168.852 281.416 169.216 281.564 169.488 281.716C169.768 281.86 169.968 282.028 170.088 282.22C170.216 282.412 170.28 282.64 170.28 282.904C170.28 283.208 170.196 283.492 170.028 283.756C169.868 284.02 169.62 284.232 169.284 284.392C168.948 284.544 168.524 284.62 168.012 284.62ZM174.012 284.62C173.708 284.62 173.416 284.588 173.136 284.524C172.864 284.46 172.604 284.364 172.356 284.236C172.116 284.108 171.892 283.948 171.684 283.756L172.164 282.94L172.236 282.832L172.308 282.88C172.324 282.944 172.34 283.012 172.356 283.084C172.38 283.148 172.436 283.228 172.524 283.324C172.692 283.492 172.892 283.632 173.124 283.744C173.364 283.848 173.668 283.9 174.036 283.9C174.332 283.9 174.58 283.864 174.78 283.792C174.988 283.72 175.148 283.62 175.26 283.492C175.372 283.356 175.428 283.2 175.428 283.024C175.428 282.904 175.404 282.8 175.356 282.712C175.308 282.616 175.228 282.528 175.116 282.448C175.012 282.368 174.872 282.288 174.696 282.208C174.52 282.128 174.304 282.048 174.048 281.968C173.632 281.848 173.268 281.708 172.956 281.548C172.644 281.388 172.404 281.204 172.236 280.996C172.068 280.78 171.984 280.536 171.984 280.264C171.984 279.984 172.06 279.744 172.212 279.544C172.364 279.336 172.588 279.176 172.884 279.064C173.188 278.944 173.56 278.884 174 278.884C174.256 278.884 174.488 278.904 174.696 278.944C174.904 278.976 175.096 279.028 175.272 279.1C175.448 279.172 175.608 279.264 175.752 279.376C175.904 279.48 176.048 279.604 176.184 279.748L175.692 280.348L175.608 280.444L175.548 280.384C175.54 280.32 175.52 280.26 175.488 280.204C175.464 280.14 175.408 280.064 175.32 279.976C175.136 279.832 174.928 279.724 174.696 279.652C174.464 279.572 174.24 279.532 174.024 279.532C173.704 279.532 173.428 279.588 173.196 279.7C172.964 279.812 172.848 279.984 172.848 280.216C172.848 280.336 172.888 280.456 172.968 280.576C173.056 280.688 173.212 280.804 173.436 280.924C173.66 281.036 173.98 281.152 174.396 281.272C174.852 281.416 175.216 281.564 175.488 281.716C175.768 281.86 175.968 282.028 176.088 282.22C176.216 282.412 176.28 282.64 176.28 282.904C176.28 283.208 176.196 283.492 176.028 283.756C175.868 284.02 175.62 284.232 175.284 284.392C174.948 284.544 174.524 284.62 174.012 284.62ZM179.532 284.632C178.908 284.632 178.428 284.492 178.092 284.212C177.756 283.924 177.588 283.56 177.588 283.12C177.588 282.824 177.66 282.56 177.804 282.328C177.948 282.088 178.144 281.888 178.392 281.728C178.648 281.56 178.944 281.432 179.28 281.344C179.616 281.256 179.972 281.212 180.348 281.212C180.484 281.212 180.62 281.216 180.756 281.224C180.9 281.224 181.048 281.232 181.2 281.248C181.36 281.256 181.524 281.272 181.692 281.296L181.716 281.956C181.572 281.932 181.424 281.916 181.272 281.908C181.128 281.892 180.984 281.88 180.84 281.872C180.696 281.864 180.556 281.86 180.42 281.86C180.132 281.86 179.868 281.884 179.628 281.932C179.388 281.98 179.18 282.052 179.004 282.148C178.828 282.244 178.692 282.368 178.596 282.52C178.5 282.672 178.452 282.856 178.452 283.072C178.452 283.24 178.48 283.384 178.536 283.504C178.6 283.616 178.684 283.708 178.788 283.78C178.892 283.844 179.012 283.892 179.148 283.924C179.292 283.956 179.448 283.972 179.616 283.972C179.928 283.972 180.204 283.924 180.444 283.828C180.692 283.724 180.9 283.576 181.068 283.384C181.244 283.192 181.376 282.956 181.464 282.676C181.552 282.396 181.596 282.076 181.596 281.716C181.596 281.172 181.532 280.748 181.404 280.444C181.276 280.14 181.084 279.924 180.828 279.796C180.58 279.668 180.26 279.604 179.868 279.604C179.604 279.604 179.344 279.656 179.088 279.76C178.832 279.856 178.6 280.008 178.392 280.216L177.972 279.664C178.228 279.408 178.524 279.216 178.86 279.088C179.196 278.96 179.552 278.896 179.928 278.896C180.288 278.896 180.616 278.94 180.912 279.028C181.208 279.116 181.46 279.264 181.668 279.472C181.884 279.672 182.048 279.944 182.16 280.288C182.28 280.632 182.34 281.064 182.34 281.584V284.5H181.404V283.66C181.3 283.86 181.172 284.024 181.02 284.152C180.876 284.28 180.72 284.38 180.552 284.452C180.384 284.516 180.212 284.56 180.036 284.584C179.86 284.616 179.692 284.632 179.532 284.632ZM185.964 286.564C185.58 286.564 185.232 286.532 184.92 286.468C184.616 286.412 184.352 286.324 184.128 286.204C183.912 286.092 183.744 285.948 183.624 285.772C183.512 285.596 183.456 285.388 183.456 285.148C183.456 284.924 183.504 284.724 183.6 284.548C183.696 284.372 183.82 284.228 183.972 284.116C184.132 283.996 184.304 283.908 184.488 283.852L184.848 284.068C184.704 284.156 184.588 284.244 184.5 284.332C184.412 284.42 184.348 284.52 184.308 284.632C184.268 284.752 184.248 284.892 184.248 285.052C184.248 285.188 184.288 285.308 184.368 285.412C184.448 285.524 184.56 285.616 184.704 285.688C184.856 285.76 185.036 285.816 185.244 285.856C185.46 285.896 185.704 285.916 185.976 285.916C186.344 285.916 186.64 285.876 186.864 285.796C187.096 285.724 187.268 285.62 187.38 285.484C187.492 285.356 187.548 285.208 187.548 285.04C187.548 284.864 187.516 284.72 187.452 284.608C187.388 284.496 187.256 284.412 187.056 284.356C186.856 284.3 186.552 284.272 186.144 284.272C185.864 284.272 185.608 284.26 185.376 284.236C185.144 284.212 184.936 284.172 184.752 284.116C184.568 284.06 184.412 283.992 184.284 283.912C184.164 283.824 184.072 283.72 184.008 283.6C183.944 283.48 183.912 283.34 183.912 283.18C183.912 282.972 183.968 282.772 184.08 282.58C184.2 282.388 184.36 282.204 184.56 282.028L184.968 282.352C184.888 282.44 184.824 282.52 184.776 282.592C184.728 282.656 184.692 282.72 184.668 282.784C184.652 282.84 184.644 282.904 184.644 282.976C184.644 283.104 184.692 283.208 184.788 283.288C184.892 283.368 185.068 283.428 185.316 283.468C185.564 283.5 185.9 283.516 186.324 283.516C186.748 283.516 187.092 283.552 187.356 283.624C187.62 283.688 187.82 283.784 187.956 283.912C188.1 284.04 188.2 284.188 188.256 284.356C188.312 284.524 188.34 284.708 188.34 284.908C188.34 285.124 188.296 285.328 188.208 285.52C188.128 285.72 187.996 285.896 187.812 286.048C187.628 286.208 187.384 286.332 187.08 286.42C186.776 286.516 186.404 286.564 185.964 286.564ZM185.712 282.64C185.32 282.64 184.98 282.556 184.692 282.388C184.404 282.212 184.18 281.98 184.02 281.692C183.868 281.396 183.792 281.072 183.792 280.72C183.792 280.368 183.868 280.048 184.02 279.76C184.18 279.472 184.404 279.244 184.692 279.076C184.98 278.9 185.32 278.812 185.712 278.812C186.112 278.812 186.452 278.9 186.732 279.076C187.02 279.244 187.24 279.472 187.392 279.76C187.552 280.048 187.632 280.368 187.632 280.72C187.632 281.072 187.552 281.396 187.392 281.692C187.24 281.98 187.02 282.212 186.732 282.388C186.452 282.556 186.112 282.64 185.712 282.64ZM185.712 281.92C185.944 281.92 186.148 281.868 186.324 281.764C186.508 281.652 186.652 281.504 186.756 281.32C186.86 281.136 186.912 280.936 186.912 280.72C186.912 280.496 186.86 280.296 186.756 280.12C186.652 279.936 186.508 279.792 186.324 279.688C186.148 279.576 185.944 279.52 185.712 279.52C185.48 279.52 185.272 279.576 185.088 279.688C184.912 279.792 184.772 279.936 184.668 280.12C184.564 280.296 184.512 280.496 184.512 280.72C184.512 280.936 184.564 281.136 184.668 281.32C184.772 281.504 184.912 281.652 185.088 281.764C185.272 281.868 185.48 281.92 185.712 281.92ZM187.308 279.904L186.972 279.508C187.204 279.276 187.444 279.108 187.692 279.004C187.948 278.892 188.248 278.848 188.592 278.872L188.7 279.58C188.436 279.556 188.188 279.564 187.956 279.604C187.724 279.644 187.508 279.744 187.308 279.904ZM192.264 284.62C191.864 284.62 191.5 284.56 191.172 284.44C190.844 284.312 190.56 284.128 190.32 283.888C190.088 283.648 189.908 283.352 189.78 283C189.652 282.64 189.588 282.232 189.588 281.776C189.588 281.312 189.652 280.9 189.78 280.54C189.916 280.18 190.096 279.88 190.32 279.64C190.552 279.392 190.82 279.204 191.124 279.076C191.436 278.948 191.764 278.884 192.108 278.884C192.42 278.884 192.712 278.936 192.984 279.04C193.256 279.144 193.492 279.304 193.692 279.52C193.892 279.728 194.048 279.996 194.16 280.324C194.28 280.652 194.34 281.04 194.34 281.488C194.34 281.552 194.336 281.62 194.328 281.692C194.328 281.756 194.324 281.82 194.316 281.884H190.416C190.432 282.236 190.492 282.544 190.596 282.808C190.7 283.064 190.836 283.276 191.004 283.444C191.172 283.604 191.364 283.724 191.58 283.804C191.804 283.884 192.04 283.924 192.288 283.924C192.48 283.924 192.66 283.904 192.828 283.864C192.996 283.816 193.152 283.748 193.296 283.66C193.448 283.564 193.584 283.448 193.704 283.312L194.184 283.78C194.032 283.964 193.856 284.12 193.656 284.248C193.464 284.376 193.252 284.468 193.02 284.524C192.788 284.588 192.536 284.62 192.264 284.62ZM190.452 281.212H193.464C193.464 280.956 193.428 280.728 193.356 280.528C193.292 280.32 193.196 280.144 193.068 280C192.948 279.848 192.8 279.736 192.624 279.664C192.456 279.584 192.264 279.544 192.048 279.544C191.856 279.544 191.672 279.576 191.496 279.64C191.328 279.704 191.172 279.808 191.028 279.952C190.884 280.088 190.76 280.26 190.656 280.468C190.56 280.676 190.492 280.924 190.452 281.212ZM203.652 284.5L201.48 279.016H202.344L204.12 283.516H203.952L204.924 281.284C205.116 280.844 205.268 280.436 205.38 280.06C205.5 279.684 205.588 279.336 205.644 279.016H206.46C206.396 279.352 206.296 279.72 206.16 280.12C206.024 280.52 205.856 280.952 205.656 281.416L204.324 284.5H203.652ZM209.532 284.632C208.908 284.632 208.428 284.492 208.092 284.212C207.756 283.924 207.588 283.56 207.588 283.12C207.588 282.824 207.66 282.56 207.804 282.328C207.948 282.088 208.144 281.888 208.392 281.728C208.648 281.56 208.944 281.432 209.28 281.344C209.616 281.256 209.972 281.212 210.348 281.212C210.484 281.212 210.62 281.216 210.756 281.224C210.9 281.224 211.048 281.232 211.2 281.248C211.36 281.256 211.524 281.272 211.692 281.296L211.716 281.956C211.572 281.932 211.424 281.916 211.272 281.908C211.128 281.892 210.984 281.88 210.84 281.872C210.696 281.864 210.556 281.86 210.42 281.86C210.132 281.86 209.868 281.884 209.628 281.932C209.388 281.98 209.18 282.052 209.004 282.148C208.828 282.244 208.692 282.368 208.596 282.52C208.5 282.672 208.452 282.856 208.452 283.072C208.452 283.24 208.48 283.384 208.536 283.504C208.6 283.616 208.684 283.708 208.788 283.78C208.892 283.844 209.012 283.892 209.148 283.924C209.292 283.956 209.448 283.972 209.616 283.972C209.928 283.972 210.204 283.924 210.444 283.828C210.692 283.724 210.9 283.576 211.068 283.384C211.244 283.192 211.376 282.956 211.464 282.676C211.552 282.396 211.596 282.076 211.596 281.716C211.596 281.172 211.532 280.748 211.404 280.444C211.276 280.14 211.084 279.924 210.828 279.796C210.58 279.668 210.26 279.604 209.868 279.604C209.604 279.604 209.344 279.656 209.088 279.76C208.832 279.856 208.6 280.008 208.392 280.216L207.972 279.664C208.228 279.408 208.524 279.216 208.86 279.088C209.196 278.96 209.552 278.896 209.928 278.896C210.288 278.896 210.616 278.94 210.912 279.028C211.208 279.116 211.46 279.264 211.668 279.472C211.884 279.672 212.048 279.944 212.16 280.288C212.28 280.632 212.34 281.064 212.34 281.584V284.5H211.404V283.66C211.3 283.86 211.172 284.024 211.02 284.152C210.876 284.28 210.72 284.38 210.552 284.452C210.384 284.516 210.212 284.56 210.036 284.584C209.86 284.616 209.692 284.632 209.532 284.632ZM213.948 284.5V283.804H215.568V277.216H214.02V276.52H216.444V283.804H218.052V284.5H213.948ZM220.2 284.5V283.804H221.604V279.712H220.272V279.016H222.468V283.804H223.752V284.5H220.2ZM221.988 277.864C221.82 277.864 221.676 277.804 221.556 277.684C221.436 277.564 221.376 277.42 221.376 277.252C221.376 277.076 221.432 276.928 221.544 276.808C221.664 276.688 221.812 276.628 221.988 276.628C222.156 276.628 222.3 276.692 222.42 276.82C222.548 276.94 222.612 277.084 222.612 277.252C222.612 277.42 222.548 277.564 222.42 277.684C222.3 277.804 222.156 277.864 221.988 277.864ZM227.808 284.62C227.528 284.62 227.252 284.56 226.98 284.44C226.716 284.32 226.472 284.14 226.248 283.9C226.032 283.66 225.86 283.356 225.732 282.988C225.604 282.62 225.54 282.192 225.54 281.704C225.54 281.2 225.608 280.772 225.744 280.42C225.88 280.06 226.06 279.768 226.284 279.544C226.508 279.312 226.756 279.144 227.028 279.04C227.3 278.928 227.576 278.872 227.856 278.872C228.112 278.872 228.34 278.912 228.54 278.992C228.748 279.072 228.928 279.184 229.08 279.328C229.24 279.464 229.364 279.628 229.452 279.82V276.52H230.244H230.364V276.604C230.316 276.652 230.284 276.704 230.268 276.76C230.26 276.816 230.256 276.912 230.256 277.048L230.268 283.648C230.268 283.792 230.272 283.936 230.28 284.08C230.296 284.216 230.332 284.356 230.388 284.5H229.536C229.496 284.404 229.468 284.308 229.452 284.212C229.436 284.116 229.424 284.024 229.416 283.936C229.416 283.84 229.416 283.744 229.416 283.648C229.304 283.84 229.168 284.012 229.008 284.164C228.848 284.308 228.668 284.42 228.468 284.5C228.268 284.58 228.048 284.62 227.808 284.62ZM227.94 283.864C228.204 283.864 228.428 283.812 228.612 283.708C228.796 283.596 228.944 283.444 229.056 283.252C229.168 283.052 229.248 282.824 229.296 282.568C229.352 282.304 229.38 282.024 229.38 281.728C229.38 281.32 229.328 280.956 229.224 280.636C229.12 280.308 228.956 280.052 228.732 279.868C228.508 279.676 228.22 279.58 227.868 279.58C227.628 279.58 227.412 279.628 227.22 279.724C227.036 279.812 226.88 279.944 226.752 280.12C226.632 280.296 226.54 280.508 226.476 280.756C226.412 280.996 226.38 281.268 226.38 281.572C226.38 282.028 226.44 282.428 226.56 282.772C226.68 283.116 226.856 283.384 227.088 283.576C227.32 283.768 227.604 283.864 227.94 283.864ZM233.532 284.632C232.908 284.632 232.428 284.492 232.092 284.212C231.756 283.924 231.588 283.56 231.588 283.12C231.588 282.824 231.66 282.56 231.804 282.328C231.948 282.088 232.144 281.888 232.392 281.728C232.648 281.56 232.944 281.432 233.28 281.344C233.616 281.256 233.972 281.212 234.348 281.212C234.484 281.212 234.62 281.216 234.756 281.224C234.9 281.224 235.048 281.232 235.2 281.248C235.36 281.256 235.524 281.272 235.692 281.296L235.716 281.956C235.572 281.932 235.424 281.916 235.272 281.908C235.128 281.892 234.984 281.88 234.84 281.872C234.696 281.864 234.556 281.86 234.42 281.86C234.132 281.86 233.868 281.884 233.628 281.932C233.388 281.98 233.18 282.052 233.004 282.148C232.828 282.244 232.692 282.368 232.596 282.52C232.5 282.672 232.452 282.856 232.452 283.072C232.452 283.24 232.48 283.384 232.536 283.504C232.6 283.616 232.684 283.708 232.788 283.78C232.892 283.844 233.012 283.892 233.148 283.924C233.292 283.956 233.448 283.972 233.616 283.972C233.928 283.972 234.204 283.924 234.444 283.828C234.692 283.724 234.9 283.576 235.068 283.384C235.244 283.192 235.376 282.956 235.464 282.676C235.552 282.396 235.596 282.076 235.596 281.716C235.596 281.172 235.532 280.748 235.404 280.444C235.276 280.14 235.084 279.924 234.828 279.796C234.58 279.668 234.26 279.604 233.868 279.604C233.604 279.604 233.344 279.656 233.088 279.76C232.832 279.856 232.6 280.008 232.392 280.216L231.972 279.664C232.228 279.408 232.524 279.216 232.86 279.088C233.196 278.96 233.552 278.896 233.928 278.896C234.288 278.896 234.616 278.94 234.912 279.028C235.208 279.116 235.46 279.264 235.668 279.472C235.884 279.672 236.048 279.944 236.16 280.288C236.28 280.632 236.34 281.064 236.34 281.584V284.5H235.404V283.66C235.3 283.86 235.172 284.024 235.02 284.152C234.876 284.28 234.72 284.38 234.552 284.452C234.384 284.516 234.212 284.56 234.036 284.584C233.86 284.616 233.692 284.632 233.532 284.632ZM240.588 284.584C240.236 284.584 239.948 284.524 239.724 284.404C239.5 284.284 239.328 284.1 239.208 283.852C239.088 283.596 239.008 283.276 238.968 282.892C238.936 282.508 238.928 282.052 238.944 281.524L239.088 277.612L239.988 277.504L240.108 277.492L240.12 277.576C240.08 277.632 240.044 277.688 240.012 277.744C239.988 277.8 239.968 277.896 239.952 278.032L239.844 279.388L239.88 279.604L239.796 281.584C239.772 282.192 239.788 282.664 239.844 283C239.9 283.328 240 283.556 240.144 283.684C240.288 283.804 240.48 283.864 240.72 283.864C240.984 283.864 241.216 283.812 241.416 283.708C241.624 283.604 241.84 283.472 242.064 283.312L242.328 283.996C242.056 284.196 241.776 284.344 241.488 284.44C241.2 284.536 240.9 284.584 240.588 284.584ZM237.84 279.016H241.788V279.724H237.84V279.016ZM244.2 284.5V283.804H245.604V279.712H244.272V279.016H246.468V283.804H247.752V284.5H244.2ZM245.988 277.864C245.82 277.864 245.676 277.804 245.556 277.684C245.436 277.564 245.376 277.42 245.376 277.252C245.376 277.076 245.432 276.928 245.544 276.808C245.664 276.688 245.812 276.628 245.988 276.628C246.156 276.628 246.3 276.692 246.42 276.82C246.548 276.94 246.612 277.084 246.612 277.252C246.612 277.42 246.548 277.564 246.42 277.684C246.3 277.804 246.156 277.864 245.988 277.864ZM252 284.596C251.504 284.596 251.064 284.476 250.68 284.236C250.304 283.988 250.008 283.652 249.792 283.228C249.576 282.796 249.468 282.304 249.468 281.752C249.468 281.192 249.576 280.7 249.792 280.276C250.008 279.844 250.304 279.508 250.68 279.268C251.064 279.02 251.504 278.896 252 278.896C252.496 278.896 252.932 279.02 253.308 279.268C253.692 279.508 253.992 279.844 254.208 280.276C254.424 280.7 254.532 281.192 254.532 281.752C254.532 282.304 254.424 282.796 254.208 283.228C253.992 283.652 253.692 283.988 253.308 284.236C252.932 284.476 252.496 284.596 252 284.596ZM252 283.876C252.32 283.876 252.6 283.784 252.84 283.6C253.08 283.416 253.268 283.164 253.404 282.844C253.548 282.524 253.62 282.156 253.62 281.74C253.62 281.324 253.548 280.956 253.404 280.636C253.268 280.316 253.08 280.068 252.84 279.892C252.6 279.708 252.32 279.616 252 279.616C251.688 279.616 251.408 279.708 251.16 279.892C250.92 280.068 250.728 280.316 250.584 280.636C250.448 280.956 250.38 281.324 250.38 281.74C250.38 282.156 250.448 282.524 250.584 282.844C250.728 283.164 250.92 283.416 251.16 283.6C251.408 283.784 251.688 283.876 252 283.876ZM255.864 284.5V279.016H256.704V279.988C256.848 279.764 257.016 279.572 257.208 279.412C257.4 279.244 257.612 279.116 257.844 279.028C258.076 278.932 258.316 278.884 258.564 278.884C258.868 278.884 259.14 278.96 259.38 279.112C259.62 279.264 259.812 279.508 259.956 279.844C260.1 280.18 260.172 280.624 260.172 281.176V284.5H259.332V281.2C259.332 280.816 259.288 280.512 259.2 280.288C259.112 280.056 258.992 279.892 258.84 279.796C258.688 279.692 258.516 279.64 258.324 279.64C258.14 279.64 257.952 279.68 257.76 279.76C257.576 279.84 257.404 279.956 257.244 280.108C257.084 280.252 256.952 280.428 256.848 280.636C256.752 280.844 256.704 281.08 256.704 281.344V284.5H255.864Z" fill="white"/>
</svg>
